/* XPM */
static char *m1_resized[] = {
/* columns rows colors chars-per-pixel */
"64 64 185 2 ",
"   c #33261D",
".  c #46352A",
"X  c #4A372B",
"o  c #46392C",
"O  c #4A3A2D",
"+  c #4A3326",
"@  c #51362A",
"#  c #553D2D",
"$  c #5C3C2C",
"%  c #4C3D31",
"&  c #503F32",
"*  c #5C3D30",
"=  c #653E2B",
"-  c #58402F",
";  c #554234",
":  c #5B4334",
">  c #584837",
",  c #554638",
"<  c #5E453A",
"1  c #574C3D",
"2  c #5D4C3D",
"3  c #60412E",
"4  c #634433",
"5  c #6B4634",
"6  c #634937",
"7  c #6D4836",
"8  c #63463A",
"9  c #684739",
"0  c #634B3B",
"q  c #6C4C3C",
"w  c #704732",
"e  c #734936",
"r  c #7A4A36",
"t  c #734D3B",
"y  c #7B4E3A",
"u  c #65503E",
"i  c #6D503F",
"p  c #74513E",
"a  c #7B513E",
"s  c #5D4F41",
"d  c #5D5040",
"f  c #644E40",
"g  c #6B4E41",
"h  c #724F41",
"j  c #645343",
"k  c #6B5343",
"l  c #665846",
"z  c #6D5846",
"x  c #685548",
"c  c #665B4B",
"v  c #6D5A49",
"b  c #745443",
"n  c #7B5543",
"m  c #735947",
"M  c #7C5946",
"N  c #745649",
"B  c #7C5748",
"V  c #745C4B",
"C  c #7B5B4A",
"Z  c #6D5D51",
"A  c #725F52",
"S  c #7A5E50",
"D  c #6C604D",
"F  c #74604E",
"G  c #7B614E",
"H  c #6D6151",
"J  c #746353",
"K  c #7B6453",
"L  c #7D6956",
"P  c #766759",
"I  c #7C6759",
"U  c #776A5B",
"Y  c #7D6C5B",
"T  c #7D715F",
"R  c #7F6D60",
"E  c #7D7161",
"W  c #82523E",
"Q  c #89553E",
"!  c #835642",
"~  c #8A5742",
"^  c #845945",
"/  c #8C5A45",
"(  c #845C4A",
")  c #8C5E4A",
"_  c #925C46",
"`  c #995F47",
"'  c #925E49",
"]  c #985F49",
"[  c #835F50",
"{  c #84614D",
"}  c #8D614D",
"|  c #94624C",
" . c #9B644D",
".. c #846553",
"X. c #8C6552",
"o. c #836956",
"O. c #8D6956",
"+. c #846C5A",
"@. c #8C6C5A",
"#. c #936651",
"$. c #9B6750",
"%. c #946955",
"&. c #9C6953",
"*. c #946D5A",
"=. c #9C6E5A",
"-. c #84715F",
";. c #8A715E",
":. c #94715E",
">. c #9C725D",
",. c #A1664E",
"<. c #A2684F",
"1. c #A16750",
"2. c #A36B54",
"3. c #A96E56",
"4. c #A36F58",
"5. c #A86F58",
"6. c #A77057",
"7. c #AB7057",
"8. c #A4715B",
"9. c #AB725B",
"0. c #B1755D",
"q. c #847362",
"w. c #8B7463",
"e. c #867866",
"r. c #8B7866",
"t. c #867A69",
"y. c #8C7C6A",
"u. c #947562",
"i. c #9B7562",
"p. c #927866",
"a. c #9B7A66",
"s. c #937D6A",
"d. c #9B7D6A",
"f. c #A37661",
"g. c #AA7761",
"h. c #A47965",
"j. c #AA7A65",
"k. c #A47E6A",
"l. c #AB7E69",
"z. c #B27C64",
"x. c #8D806E",
"c. c #94806E",
"v. c #9B816E",
"b. c #8E8372",
"n. c #948472",
"m. c #9B8572",
"M. c #968977",
"N. c #9D8976",
"B. c #948B79",
"V. c #9B8D7A",
"C. c #9D917E",
"Z. c #A4816D",
"A. c #AC816C",
"S. c #B0836D",
"D. c #A38572",
"F. c #AB8671",
"G. c #A38976",
"H. c #AC8A76",
"J. c #A38C7A",
"K. c #AA8D7A",
"L. c #B28772",
"P. c #B38973",
"I. c #B88D77",
"U. c #B28D79",
"Y. c #A3917E",
"T. c #AB917E",
"R. c #9E9381",
"E. c #A49582",
"W. c #AA9582",
"Q. c #A59986",
"!. c #AB9986",
"~. c #A79B8A",
"^. c #AB9D8B",
"/. c #B29581",
"(. c #B19A86",
"). c #B29F8D",
"_. c #ADA08D",
"`. c #B5A28D",
"'. c #B3A592",
"]. c #BAA692",
"[. c #B2A895",
"{. c #B9AA95",
"}. c #BDB19F",
"|. c #C2A793",
" X c #C6A895",
/* pixels */
"n | #.#.k.R [ X.) =.V ! #.#.#.#.%.O.O.) N.Z B h N O.O.X.[ O.g.N k *.%.%.d.R [ [ } i.r.C *.:.*.*.*.=.*.a.W.A [ %.=.%.i.+.%.8.f.f.",
"n ) #.| *.f ) #.) #.g y ' ! / ^ n ^ ^ #.S X B b N C B C N b %.& f O.) ) [ o ^ #.} >.K t #.^ { C b X.S ) S o ( ( $.%.%.N &.8.$.#.",
"n ) $.' *.8 ^ ' ) &.h h #.) ) ^ ( ! B O.f . h g f h N N h h [ , g ( ( ) *.& ^ ) | 8.L p } n B B h x N [ q o X.#.=.=.=.g #.2.2.=.",
"n ] $._ h.8 y n ! / * t ! ! ^ ( ! h B #.g   * ; < h t h 8 g ^ % * n ^ / [ O ^ ) | >.F p ) ( B n B h g ^ g o ( &.&.] %.q  .$.$.4.",
"h [ ..K G.y.I o.V r.P S S V v f k v V w.B.c s l f f x x f v -.c j N V +.y.s g b a ;.c i p M M M N S S X.Z o 4 t t b K j [ M B { ",
"..u.G.r.w.k.i.d.r.d.p.d.W.J.q.d.u.D.V.r.D.G.d.W.s.r.s.G.!.~.n.J.(.W.m.G.W.d.m.V.c.T.J.C.Y.B.v.p.D.G.G.G.D.u.@.s.w.N.K.m.'.e.+.r.",
"|  .B h ) ' / ! ) ) ! ) #.8 7 ' '  .N t | / | b 8 _ / ) h.l / ] '  .$. .] _ 4.+./ $.$. .a.k | | $.$.$.$.2.8.4.3.2.2.#. .@.1 ( } ",
"#.2.S k $.| ) / #.#.! #.%.: h ' } %.8 ! #./ | k 9 ) ) ' %.> ) $.#.' $.2.%.] f.v } 8.| | } >  .&.&.4.2.4.4.8.4.=.g.8.=.| %.j ( B ",
"%.2.[ k 2.$.#.' $.&.) / %.s n ] #.$.8 ) 2.#.#.k a | }  .%.> | / _ #.2.3.9.$.Z.G W &.$.&.O.6 &.6.4.2.4.4.2.%.#.#.4.&.%.$.*.s ( ^ ",
"! / N 8 / ( / h ! ) ~ n *.x $ y n ^ & y / / | x q ~ ~ Q :.2 a | h y ~ ) Q Q :.F y Q Q { :.> / } _ ) ' _ / ~ ~ / W ^ ) ! i.y.N N ",
"R y.q.E q.y.y.R R R A R y.R.R.y.R.B.b.q.R R M.n.e.r.r.q.!.E.y.V.n.s.r.n.x.M._.M.T -.n.V.Y.x.x.-.I +.-.q.q.-.-.y.q.e.r.n.~.}.~.R.",
"I :.*.k.m.Z A S S x N S S [ @.@.@.O.d.a.q.S >.h.8.8.>.f.8.>.g.;.) 4.4.2.(.n.h.8.>.A.8.&. .G.@.#.:.=.i.k.K.U V @.w.O.@.@.O.X.>.N.",
"4 / ! / N . * * * * 8 8 8 8 8 * q t 5 ! - w  . . .| $.$. . .8.0 ! 2.<.3.N.p  . .|  . . . .@.6 | ] #./  ...o 8 g g b C n n n } k ",
"8 ) ) #.[ % f g f f g g g g g h h b ! X.0 p  .#.&.&.&.&.| | 8.m / 2. .2.Y.b &.6. .2.&.&.6.@.i $.%.] #.#.N ; < g N g g N N N ..J ",
"f / / _ X., # @ * 8 q 9 q t g h b n a  .j 7  .<.2.$. .&.$._ 8.i ~  . .,.G.i ,. .| <.<.$.&.:.:  .,. ./ ] m o < < g g g b N n X.S ",
"J S ..;.W.B.P q.I Z I I A A I x z G q.V.T u ! a M M M p M M a.J k ( C %.Q.L G { { G o.O.@.N.Y { B ....s.V.c j s x f 2 j C V w.J ",
"G.J.W.n.y.r.s.s.G.D.K.K.].V.H.v.G.G.G.K.K.m.J.y.c.N.G.d.E.Y.G.Z.:.:.a.>.Z.A.G.n.:.:.v.Z.T.B.G.m.G.d.m.K.Z.h.Z.y.Z.Z.Z.>.!.x.:.a.",
") ] =.q ! r n ! ! _ ] ] k.b  ./  .,. .` _ ` X.p <.2.<.3.Z.0 _  .<. . . .Q | #.6 | _ <.$.Z.u y  . .' |  .|  .^ > | <.8. .A.v | &.",
"| $.*.4 | / ] ' ' } )  .O.t 2. .2.2. . .` 2.M y 2. . .<.X.- | | | } / | } } M - $.} #.$.>.u W #.) | | #. .} ( ; } | | | a.v  .#.",
"4.$.X.q ] / _ ) #.| | 2.O.q 3.2.2.2.<.<. .3.p p <.<. .<.@.- Q } ^ ^ } } |  .{ >  .| $.&.} > ~ ~ /  . .2.|  .} 2 | $.| / p.V ) | ",
"/ ] @.8 / y ! ! / ' '  .u.0 y ) / / / ) ~ | +.k } } %.>.v.> a W ^ 6 a a a { G > a { a G Y.T F G b M a p M } X.2 ( ! { O.!.Y b n ",
"+.y.n.q.-.P N C N N +.w.n.n.-.q.w.q.+.p.;.n.K.m.Y.Q.N.G.G.p.c.;.:.@.-.r.B.V.Y.m.-.m.N.Y._.`.G.m.c.s.m.M.M.y.!.c.c.N.V.!.W.K.w.M.",
"=.X.#.%.i.Z ( =.#.) #.*.| ' | | | #.2.| |  . .1.9.L Q | <.<.Z.G  .7. .9.m.}  .6.| _  .&.&. . .$. .$.2.8.;.( 2.0.8.z.H.q  .3.9.9.",
"| ' / ) ! X ) ( ) ! n ! ( ) / ( ) ^ n ) ^ ) | ' 8.i Q <.2.$.#.i  .7.6.7.F W | | / } } } | } | /  .$.$._ - ^ $.<.2.2.o.$ 2.2.2.2.",
"} ^ ) ) n ; ) n ( ! n n n b M n n ^ ^ ( ^ } | / &.0 } <.<.,.>.i ,.<.6.9.{ p / | } | | | $.$.&.&.$.<.$. .6 Q ,.<.6.2.o.= 2.3.&.&.",
"' / %.' / ; ] | ] ) / / ) ! / / / ^ | ) _ | |  .| 4 _ <.7.,.#.6 <.<. .<.} 7  . .<. .<.<.&.<.<.6.2.2. . .6 e  . . .2.V w  .&. .,.",
"[ [ X.*.+.1 t b M b N q b C b b p b p n p p M { +.j m V V ;.c.J { ;.o.p.T : m p p i 6 6 i p p p p p a v.T D l l k x.x.l z V V K ",
"o.w.R.R.o.u.) u.r.X.*.} Z.n.#.#.} %.C.F O.} | %.8.Z.k.Z.Y...h.Z.f.8.f.>.=.#.>.-.o.=.} } x.F O.o.@.:.C.m.Z.h.>.>.a.A.F.F.!.n.Z.D.",
"t y d.N r 2. .i.b  . .,.8.b ,.,.|  .d.7 ,.2.2.&. . . .3.X.7  . .<.$.$. . .| 7.u W 6.2.9.m w ,._  .6.D Q  . . .|  .Q Q 2.o.b  ./ ",
"n B w.* |  . .O.5  .&.,.O.q 2.9. . .O.4  ._ 2. .2.$. .2.i q |  .&. . .| 2. .9.F y <.$.6.i w | | | &.2  .&.$.6. .$.%.&.2.G M } ) ",
"n ^ @.9  . .] *.4  .2.2.^ p 2.2.2.<.d.t <._  .2. . . .<.7 7 2.2.<.&.7.6.6.7.2.G } 7.3.<.F e  .,. .%.>  .7.<.2.6.&.| &.2.L 9 } %.",
"! ! N 9 / ~ ~ *.8 ' _ &.@.v ^ | _  .V 7 _ | W / _ ~ | | K 6 M } W G a { ^ } %.l a } { v.T 0 G M a :.l 4 } { ^ M ^ ~ ! >.e.4 t n ",
"K s.s.q.+.A S I N K +.u.d.s.K s.r.C.c.x.x.c.-.L +.L c.Y._.M.x.x.r.v.;.m._.M.N.N.Z.:.v.Z.Z.T.-.@.;.G.m.;.n.-.;.o.-.;.V.'.'.v.y.K ",
"#.%.%.=.i.R ) ) | :.b ` | 2.2.4.8.8.&.9.v.i } | #.*.$.*.$.%.&.6.2. . .0.C.a  . . .<.<. .2.F.3 ` 7.<. .6.w.! <.2.&.8.v.C 8.2.2.2.",
") / ) / #.f / / ' *.4  .| $.] 2. .|  .| ;.6 a } a M M / ! } | | &. .$.2.D w |  .} Q &.&.$.=.@ / &. . .$.p / Q | | / u.3 | | &.$.",
") ) ) ) ) 0 ! / ) X.q #.] _ $.$.2. .$.$.@.{ Q } / { / / | / / ` $.$.$.2.6 y | | $./ | 6. .Z.- Q &.}  .&.u | e  .&.| u.q  .6.$.8.",
") ' | / ) x W ! ~ n 4 _ ~ _ ~ _ / / _  .L G _ } _ / / _ _ ` / _ Q Q  .&.i 5 | Q  .| _  .<.>.- Q | ` _ $.u r r = Q  .@.w  . . .,.",
"+.f N ..G.t.S S @.Y J K +.S I V z G K c.Y.-.;.;.-.o.G G G G L c.;...o.G.x.D i F F G i i ;.x.2 z G F L T.C.J m.P u G x.L G o.o.o.",
"u...w.n.R P N +.q.;.@.O.R.q.o.S ( M.+.%.Z.F.A.8.A.8.S.A.{.V.Z.Z.>.A.8.A.9. .A.e.8.>.>.6.8.Z.A.>.T.x.-.c.;.;.+.;.o.;.h.T.'.v.F.P.",
"! ! B s @ q g t g n ( ( S < q q n b 4 a y }  . . .<.7.7.m.M  .<. .<.<. .&.` A.m Q | 7. .&.7.<._ Z.> 5 a p p p n n ! y } L Q  .3.",
") n B s 8 h g k g k N } O.Z 8 8 b g & h n ) | &.&.6.2.9.J.m <.<.2.2.6.&.$.6.| b $. . .| 6.6.=.| k.& < b k q 0 q b n n %.k y  .$.",
") ! ( , 8 g h g k q g ! C s 8 > h b : n /  .&.2.6.6.6.9.v.M <. .<.<.2.<.2.6.} b <.7.6. .2.7.6.<.h.O : b N N b M M } ( %.s.5 2.2.",
"( b @.c + 0 g < 2 u k ..V.P ; 8 n K : t a n ( / / / | >.G.Y @.o.{ { } ^ W } C j X.} ^ ^ { } { } :.; : p q q i b M M n *.n.4 ) / ",
"n.s.V.V.e.V.B.B.C._._._.{.{.N.n.W.E.y.x.E.y.w.w.@.x.x.G.T.T.Y.M.o.;.;.x.x.+.G.+.o.p.+.L c.L L o.s.J C q.M.;.L G G +.s.W.!.p.w.u.",
"/ | 4. .H.e.^ %.#.:.+.} #.&.&.6.9.g.8.6.K.{  .2.<.S.F <.6.` A.U + | | h.y.y | 2.$.#. .8.;.a &.2.&.2.2.L.n.$.9.7.6.9.0.0.9.9.0.0.",
"/ ) )  .i.* ! / / X.> a |  .^ / } | }  .u.3 '  .` >.u  .<._ c.D O { ^ ( s p | | { a ^ %.l y  .$.&.2. .Z.l Q &.&.9.8.6.<.2.6.7.9.",
"} ) ) ' %.9 ' ) Q 6.i y $.} } | | } } | u.7  .|  .8.6  .6.| >.D 3 C ( X.k y | / } } | $.u a &.<.2.2.,.k.l | <.&.7.9.9.2.2.6.6.<.",
"| y W / ^ : / ~ } =.u Q |  . . . .| | | ;.9 ]  . .A.6 ` | _ &.M W a W >.j e y a Q / Q | u r | _ _ _ _ :.l / <.6.<.6.6.$. .| | W ",
"m.K Y r.y.U J F q.e.j J V F L v V L r.Q.M.j V G -.-.Y L F ..v.x.x.L x.G.C.N.L L o.{ o.A.Y K K -.c.x.m.Q.e.D o.o.+.;.r.-.r.N.c.i ",
"8.K.s.>.i.d.d.k.d.Z.u.O.G.N.%.*.8.f.j.g.f.8.&.>.j.8.A.A.`.x.>.A.A.T.O.Z.S.A.A.A.A.A.A.P._.v.A.Z.H.V.h.j.A.9.G.c.8.9.A.U.Y.=.S.9.",
"~ X.< y / W ~ ) / / W ~ Z.G W | | | |  .| _ | $. .&.2. .I.i Q  . .o.6 <. .<.` <.<.3.,.S.c.W <. .8.M  .2.2. .8.m 2.9.<.9.F Q 2.` ",
"/ *.J y ( ^ n ( ) ) ( / d.z / ) ) n n X.} { ^ | $.|  .6.H.{ | $.<.x.w <.` A.A.<.3.7.` A.x._ 2.2.8.V <.6.6.6.*.i &.9.7.8.u _ 6.<.",
"_ *.k ! n t n n M ) / / u.z ' / ' ) ) | ^ ! ) / | #.| <.D.M  . .<.x.y <.6.6.6.<.2.7.<.A.-.}  .<.=.i <.6.2.3.h.G  .0.7.A.u Q 7.7.",
"/ >.J q p ( ^ ^ n ! } } v.D b a ^ B M m B b k n a { } v._.J p M  .F i / } } } X.X.X.| H.Y.L { { s.D M ( { } v.L ^ >.Z.T.D a | } ",
"@.m.J.s.s.e.r.+.o.C ..v.!.G.;.;.y.-.Y K +.Y J I Y r.C.Y.T.G.p.:.Z.v.o.x.x.O.c.Z.Z.F.C.v.T.K.>.c.G.N.m.R.y.:.G.c.-.c.'.Y.x.o.x.c.",
"#.#.=.1.H.k ) | | |  . . .8.8.0.*.k ! ( ! n ( ) Q &.@.{ $.<.7.7.<.3.<.A.o.` _ <.<.A.L r &. .$.2.2.&.&._.z | $.8.6.6.-.Q 3.7.<.3.",
"&.! |  ...: n n ( | |  . .| $.<.^ ; t h g 8 8 9 p =.i M 2.2.6.<.A.<.` ' 6 2.<.$.&.9.F } 9.$.X.#.&.#.| c.u | #.#.$.$.u a &.&.2.&.",
"=.( ! #.C 9 ~ ) |  . .$.2.2.2. .| : n q g 8 g S G X.G { =.2.6.6.<.A.A.} i 2.Z.<.<.=.u  .&.&.X.#.%.%.#.Y.i } | } { &.D } 6.&.6.6.",
") | ( | M q y / &.&. .$. .| |  .! i ! n t 9 N X.a } M ..A.<.2.6.<.<.<.&.l | _ ` | %.m a #.=.%.$.$.| %.Y.l y W M Q %.i p } }  .| ",
"P P y.q.x.j A V V V K F ..o.G -.P A v m K D v v -.M.Y D x.T -.o.O.x.c.H.L G L o.o.J.x.-.T e.-.-.c.n.B._.C.e.-.e.x.M.C.C.-.J F G ",
">.:.>.*.u.X.d.r.) *.:.k.E.n.:.:.h.*.O.i.y.;.%.*.*.>.>.Z.C.G *.:.%.4.<.Z.A.A.Z.<.8.S.A.|.Q.O.8.>.Z.8.Z.>.Z.A.K.J.>.Z.A. XC.>.>.:.",
"| | } | | ) u.k ) | #.9.v.m ~ } ! ^ ! ) J q ( } { W { >.x.p / #.#.'  . .<.2.<.<.&. .$.P.e.p ~ } } Q &.&.$.Q >.l Q <. .S.J ^ } } ",
"( ) { #.&. .u.k %.#.} 8.K M | } ^ b ! X.Y b B ( ( M { 8.-.M #.%.&.%.&.Z. .A.A.<.8.8.2.A.v { ^ ( ! b G { { Q =.D } #.| A.u } A.| ",
") #.#.#.&.#.{ 8 #.| ~ | ..M | { X.( ( ) s ^ ( C { #. .A.x.M &.&.&.6.&.6.<.<.<.Z.8.8.8.8.z } #.#.} ( } { } } O.m | &.$.Z.l =.8.} "
};
