/* XPM */
static char *m1_resized[] = {
/* columns rows colors chars-per-pixel */
"32 32 85 1 ",
"  c #563B31",
". c #5B3E33",
"X c #574235",
"o c #584134",
"O c #644335",
"+ c #624539",
"@ c #69473A",
"# c #664A3C",
"$ c #6D4C3C",
"% c #734D3C",
"& c #74513E",
"* c #7C513E",
"= c #624F42",
"- c #6D4E40",
"; c #6B5245",
": c #69574A",
"> c #745444",
", c #7B5543",
"< c #755847",
"1 c #7C5946",
"2 c #755B4B",
"3 c #7C5D4B",
"4 c #755E50",
"5 c #7C604E",
"6 c #746252",
"7 c #7C6353",
"8 c #7B6758",
"9 c #7F6959",
"0 c #83523D",
"q c #835642",
"w c #8B5640",
"e c #835946",
"r c #8B5A45",
"t c #845D4B",
"y c #8B5E49",
"u c #935D46",
"i c #995E46",
"p c #925E48",
"a c #83614E",
"s c #8C624E",
"d c #93624D",
"f c #9C644D",
"g c #846553",
"h c #8C6551",
"j c #846956",
"k c #8C6955",
"l c #856C5B",
"z c #8B6D5A",
"x c #936651",
"c c #9B6751",
"v c #946955",
"b c #9B6A54",
"n c #946E59",
"m c #9B6E59",
"M c #8B705E",
"N c #94715D",
"B c #9B725C",
"V c #A1664E",
"C c #A16750",
"Z c #A36A53",
"A c #A96D54",
"S c #A36F58",
"D c #A3725C",
"F c #AB735B",
"G c #857161",
"H c #8B7362",
"J c #8F7966",
"K c #8F7968",
"L c #937562",
"P c #9B7661",
"I c #937966",
"U c #9D7965",
"Y c #957C69",
"T c #9B7D69",
"R c #A27661",
"E c #A17B65",
"W c #AB7B64",
"Q c #A07E69",
"! c #95806E",
"~ c #9A816D",
"^ c #9D8572",
"/ c #9C8976",
"( c #A2826D",
") c #A8846E",
"_ c #AD8975",
/* pixels */
"ebgsx,psyh4>4as22v4ymjsggn4gmkvD",
"qca,y-qe>a..->-=@y-,v<,,-, ectpZ",
"gzYllMH4jHH84jHGGLMjLGMkzLg3jNGg",
"b3ppdd3ec1ct,bgsZbZnvSavDDFDFD43",
"d<dyss3,s>x3,d4eydvlev3ycxdsdxG3",
"lHG444HHHHjLLNQLnLTTnUYMkLGglH/T",
">p= .-+@%,@fCcCypFzfCCxefd=+>>,3",
"3nG:24423L4sxsxj1mYsvvLgxn4;:;4j",
"PHjnmUTNPEPzNRLmvmBzhRINNPDgnRIn",
"cqwrupeiCii,iZ>qrrr$rf<*uuu-rdgr",
"nlt1tmMgkvnNLQMgaaLljL/MkzLHMTTl",
"hv2ttthyssySvdSkbFzbdbbbmbtDWgCW",
"rp-qq,,qqqrp>rZtfZ,rppdfcu%pb-dc",
"gYgastzaagehkzNNnNa5tt5ttYzaNLln",
"e4ivtZsCZapZZZ,fZcAspS>pbaZZcZgx",
"t2rs,Z3dmtpddx2sxxbksB3yh>vdyB4,",
"kNjaggBvB~las~~NnB!NbB~aBBzxz~~x",
"rp10s0ffff50ww0fff%diff%fd00c1uA",
"ahl5a5jaav!hhshkhB5esan6sBl55kkb",
"g7225k9<55BBZ(~mSDSzxbBBl5j75N!D",
"q#.$#*<o$O0fVFkdZffaffCA&o$$*0*f",
"zG8j9!/8MjMkk~^Nkzzghhkk56j55~!x",
"pmzhvgbbBFMfBhFj$v5cdd5fZDzCFFFF",
"er>qs&ddrx50v*fa$g&1as%dfN5VSCbd",
"LMHzLjHgs(nsNNM~!!(Nc(!N~~NNN~~x",
"h,qyypzrddddbFBicyAAZ(vAkVFhAFeA",
"v211qsleaa15sB!sgtbbf(NdksbMb)1b",
"nUGhanENg55*kIBB~Nzc(N~B~~zB~~nn",
"yp,qfffV%$O$e1VAAiwVb1fddN1uu%fZ",
"hz21hhvv5565zg!nb~gxNlNNN/MaM!zs",
"zvnltPKhhhjsh!Mhf~(bD_MsnB(Nn_Mx",
"ydc3sxty0a<11cgdVbAAAm5ueay5pbam"
};
