/* XPM */
static char *m2_resized[] = {
/* columns rows colors chars-per-pixel */
"64 64 246 2 ",
"   c #533A30",
".  c #594338",
"X  c #704B3A",
"o  c #594B46",
"O  c #5E504C",
"+  c #654C44",
"@  c #65524B",
"#  c #6A554A",
"$  c #74554B",
"%  c #7C5B4D",
"&  c #765648",
"*  c #6C5953",
"=  c #725B51",
"-  c #7C5D53",
";  c #734F42",
":  c #7B6359",
">  c #6F6159",
",  c #796B64",
"<  c #7E716B",
"1  c #9D5A3B",
"2  c #A95D3B",
"3  c #AC562F",
"4  c #AC633E",
"5  c #835C4A",
"6  c #8A5C48",
"7  c #965D45",
"8  c #865F51",
"9  c #A35F43",
"0  c #8C614D",
"q  c #85624D",
"w  c #94634D",
"e  c #9B634C",
"r  c #9E664B",
"t  c #846253",
"y  c #8A6352",
"u  c #83655B",
"i  c #8B6B5D",
"p  c #88685A",
"a  c #936552",
"s  c #956954",
"d  c #9C6B54",
"f  c #936C5B",
"g  c #9C6D5A",
"h  c #996651",
"j  c #9C715D",
"k  c #95715D",
"l  c #8F705E",
"z  c #A46246",
"x  c #AB6444",
"c  c #A3654B",
"v  c #A4694D",
"b  c #AC6A4C",
"n  c #AB664B",
"m  c #B36544",
"M  c #B46C4C",
"N  c #BA6D4D",
"B  c #B56847",
"V  c #BC714D",
"C  c #B1704D",
"Z  c #A46B54",
"A  c #AC6D53",
"S  c #A36E5A",
"D  c #AB6E59",
"F  c #B36E52",
"G  c #BA6F51",
"H  c #AD7256",
"J  c #A4735C",
"K  c #AC745C",
"L  c #A97358",
"P  c #B47254",
"I  c #BB7354",
"U  c #B3755B",
"Y  c #BB7659",
"T  c #B5795D",
"R  c #BC7A5C",
"E  c #836C62",
"W  c #8B6D62",
"Q  c #846F6A",
"!  c #946E60",
"~  c #8C746B",
"^  c #897369",
"/  c #947363",
"(  c #9B7462",
")  c #96796C",
"_  c #997869",
"`  c #897C76",
"'  c #967D73",
"]  c #A27562",
"[  c #AC7661",
"{  c #A47964",
"}  c #AD7A64",
"|  c #A47C6B",
" . c #AB7D6A",
".. c #A67769",
"X. c #B37B63",
"o. c #BC7D63",
"O. c #B57D68",
"+. c #A57F72",
"@. c #C2724E",
"#. c #C8764E",
"$. c #C27554",
"%. c #C37956",
"&. c #CB7A55",
"*. c #C27759",
"=. c #C37B5C",
"-. c #CB7D5C",
";. c #C97754",
":. c #D27D57",
">. c #C16E52",
",. c #C37E62",
"<. c #CA7E61",
"1. c #8B817B",
"2. c #94847C",
"3. c #9A857B",
"4. c #9B8579",
"5. c #AC816D",
"6. c #A3806F",
"7. c #BC8065",
"8. c #B4836D",
"9. c #BC836C",
"0. c #BA846A",
"q. c #A48374",
"w. c #AC8372",
"e. c #A58B7D",
"r. c #AB8B7C",
"t. c #A68679",
"y. c #B48573",
"u. c #BA8672",
"i. c #B48A76",
"p. c #BC8A74",
"a. c #B48B7B",
"s. c #BB8C7A",
"d. c #BC917D",
"f. c #B4907D",
"g. c #CD815E",
"h. c #C7815E",
"j. c #D2825D",
"k. c #C48164",
"l. c #CC8364",
"z. c #C4846B",
"x. c #CC866A",
"c. c #C4886D",
"v. c #CC896D",
"b. c #D28563",
"n. c #D18669",
"m. c #D48B6C",
"M. c #DA8C6C",
"N. c #D88865",
"B. c #C38B74",
"V. c #CC8C72",
"C. c #C68C77",
"Z. c #D48E71",
"A. c #DA8E71",
"S. c #CC9175",
"D. c #C5927C",
"F. c #CB937B",
"G. c #CA987F",
"H. c #D49174",
"J. c #DB9273",
"K. c #D4957A",
"L. c #DB967A",
"P. c #DB997D",
"I. c #DA916F",
"U. c #E29573",
"Y. c #E2997A",
"T. c #9C8B83",
"R. c #968B86",
"E. c #9D938B",
"W. c #928A87",
"Q. c #A38E83",
"!. c #AA8F84",
"~. c #B18F81",
"^. c #AD9285",
"/. c #A3938B",
"(. c #AC958A",
"). c #A8968A",
"_. c #B39384",
"`. c #BC9483",
"'. c #B4968B",
"]. c #B49A8C",
"[. c #BC9B8C",
"{. c #BB9888",
"}. c #A59993",
"|. c #AC9C94",
" X c #A79A94",
".X c #B39D92",
"XX c #BA9E93",
"oX c #BA9E98",
"OX c #ADA29B",
"+X c #ACA196",
"@X c #B4A195",
"#X c #BDA294",
"$X c #B3A39B",
"%X c #BBA59A",
"&X c #BCA99D",
"*X c #B6A99E",
"=X c #B5AAA4",
"-X c #BCABA3",
";X c #B8ABA6",
":X c #BCB2AB",
">X c #BBB1A7",
",X c #BEB7B2",
"<X c #BEB9B2",
"1X c #AEA7A1",
"2X c #C49482",
"3X c #CC9A84",
"4X c #C39B8A",
"5X c #CB9E8B",
"6X c #C59785",
"7X c #D59D86",
"8X c #C29F90",
"9X c #E39E82",
"0X c #D4A38D",
"qX c #DBA28A",
"wX c #C3A394",
"eX c #CBA493",
"rX c #C3A69A",
"tX c #C4AA9D",
"yX c #CBAB9C",
"uX c #C9A897",
"iX c #D8A996",
"pX c #CCA795",
"aX c #E4A890",
"sX c #C3ADA2",
"dX c #C8AEA4",
"fX c #C4B1A5",
"gX c #CBB2A5",
"hX c #C3B4AB",
"jX c #CBB5AB",
"kX c #CDB9AE",
"lX c #D1B6AA",
"zX c #D6B7A7",
"xX c #C4BAB4",
"cX c #CBBCB4",
"vX c #C5BBB5",
"bX c #D2BCB3",
"nX c #D1BFB8",
"mX c #D2AEA1",
"MX c #E2BBA7",
"NX c #C9C2BB",
"BX c #D3C3BC",
"VX c #D8C5BA",
"CX c #CDC6C1",
"ZX c #D4CAC5",
"AX c #D9D3CD",
"SX c #E4CCC3",
/* pixels */
"|.T.2.` ` ;X].6X6X`.[.tX].'.(.Q.|.^.r.t.!.vX5X3X3X2X2XD.2Xd.u.| ) ^ E ) 2.*X8.y.9. ... .{ g .._ W - , E , }.'.t.Q.T.E.2.` R.R.' ",
"/ l u = . R.p.v.v.v.,.z.,.X.X.S J T U Y S %Xm.k.=.k.l.<.R h.h.T d a g 0 i &XY T =.F v v A c h 8 5 8 $ !   2.O.A D 7 5 a + $ $ a ",
"i _ / E @ =XqXx.H.Z.c.Z.x.,.o.,.7.k.v.n.d %XZ.l.l.x.=.v.x.l.l.} J j J s ) fXY 7.o.P Z A [ e s 8 8 - - E + /.o.[ K Z d f 8 $ 8 [ ",
"@ = - $ o .XK.,.k.z.x.<.X.D X.X.7.=.-.=.0 jXk.h.l.R U R k.R L 5 % & p s q [.I Y P n z w a 6 % = $ + $ $ + Q.D A Z 6 y 8 $ - 5 6 ",
"=X:XOXOX=XCXdXyXrXwXwX#X8X8XoX#XyX#X[.[.sXZX8X`.{.]..X^.#X].(.E.R.T.}.].@XxX`.{.f.r.3.T.T.' 2./.` ` /.Q.T.:X'.e.4., /.' Q ~ E ' ",
"MXiXiXiXiXiXiXeXtXdXrX%X:XAXmX0XF.F.K.H.V.x.F.F.S.D.D.y.E.jXeX{.eXuX{.4X4X{.{.'.#X`.[./.;XXX`.~.'.|.}.}.}././././././.}.1X X|.R.",
"U.U.Y.A.J.L.L.L.Z.Z.o.D u mX7Xn.n.b.N.M.N.n.N.m.n.b.b.9 ) 0Xn.R =.x.R =.7.=.=.k.R U X.5 Q.O.O.[ j f j a g f s h J h e u t.a 6 X ",
"9X9X9XY.9X9X9XJ.P.F.+.g ' MXL.A.Z.J.N.A.M.A.M.m.J.m.k.P e.eXK.m.v.v.z.m.v.V.c.c.9.z.O.p %X9.8.9. .! ..]  .O.X.S U X.v ) e.s u $ ",
"Y.L.J.A.A.A.n.x.8.f : $ < MXN.<.k.M.<.n.b.j.b.<.<.-.I n & D.x.<.h.k.k.x.k.k.R o.K { g = (.O.[ O.i % y d J A A A Z F A 8 / 0 $   ",
"BXzXmXmXmXmXdXbX;X|.oX/.OXZXmXwXyXeX8XuXwXuX5XwXwXrXuXa.|.xXrXXXoXrX#X{.'.'.[.]..X/. X}.:XoX$X%X|.E.}.@X].^.Q.(._.!.^./.OX3.1.W.",
"0XeX4X'.T.W.ZXzXiXaXiXiXaX7X0XqX7X3Xi.iXD.^.,X^.4X`.'.{.{.a.^.~.[.[.a.i. .R.vX{._.|.' Q.4.+.p.8.8.8.y.i.t.}.vXs._ ) ) ^ < ' ' ~.",
"l.m.X.g t + 8X9XZ.L.L.A.A.A.M.N.N.N.<.M.N.7 E.s.R o.U [ o.R R o.=.,.k.,.H t %Xk.[ s % $ a v F x x B b x 4 6 -X9.7 w 0 & ; 7 c c ",
"x.V.O.f > @ 8X9XA.7XL.J.Y.A.A.A.M.m.m.M.M.H ) `.K z.o.X.c.k.z.k.x.x.v.v.Z : jX .! ! f f K Z A P H I I R P 0 ;X9.Z d y 0 S D D D ",
"[ S t @ O   ].7Xn.A.x.A.N.M.<.M.N.j.-.g.N.e ~ 0.D K H H A F P =.7.=.%.=.w ^ >X& % & 5 y e z U A n b I N x / $Xe a 5 5 % a Z D Z ",
"cXhX:X=X=X,XZXbXbXdXkXbXmXlXdXlXgXyXyXtXtXoXNX&XoX%X@X%X.X@X%XtXrXsX&X-X&XxXxX*X=XoXOX=X$X-XdX.X.X%X-X@X.X=X,X.X@X|././.T.|.%X_.",
"iX0X7XaXaXaXqX7XaX7X7XiXiX_.,XdXr.Q.3.` ` 1.~ t.a.a.4Xy.p.5.NXMXV.v.0.P.Z.v.c.F.3X3X3XD.D.B.;XmXo.O.u.z.u.9.8.p.u.5.y.a.t.t.T.-X",
"9XJ.L.J.U.U.U.U.U.U.M.I.U.@.E '.d ( y q t i q 0 %.N *.b T 7 !.iXl.j.g.g.j.h.j.N.-.<.-.-.-.N 4.5XN V @.N N I G F N n Y 9 n c + [.",
"Y.L.L.U.U.U.U.Y.U.U.U.U.U.-./ '.s | p i a s K d k.P %.I R Z ^.qXj.N.b.g.g.g.N.N.b.-.l.l.-.;.q.3X@.-.;.N I $.*.P n F F F A z & #X",
"J.x.m.M.I.M.U.M.H.M.M.N.N.Y 4.' t ~ = # # : y S Z J U H } e |.iXx.l.b.b.j.-.j.l.P ,.<.Y ,.G _ 3Xg.%.I N I P V V M M N F F 1 - &X",
"BXlXbXbXVXBXBXzXBXvXBXBXbXkXZXhXhXNX=X X;X>XOXhX-XsX&X-XxXrX<XNXkXgXdXtXrX#XtX#XoX-XtXoXgX].;XvXsX#X&X-X-X:XsXrX'.[.'._._.r.|.xX",
"5X3X5X0X0X5XNXSX7XL.7XF.s.y.8.y.6.W E , , > , xX3Xc.5.6.{ _ ( _ q.r.s.d.i.5.e.<XyX4X2Xu.p.c.0.5...| 5.5.8.y.t.<X_.g ( 8.8.y.K K ",
"v.m.b.j.N.I.i.MXA.A.M.-.Y U Y h 5 k t # @ # = jXc.x.[ R o.t j { T 5.T 7.T h.b Q.0Xx.,.k.k.l.=.P P U U Y V h.1 2.eXm N $.$.I M P ",
"H.J.v.m.I.I.y.MXM.U.M.x.k.k.,.g i j l l q p u NXc.K { g .. .{ ( 6.7.5.s J 7.d ).P.=.k.x.z.h.g.R K T Y R P Y 1 E.3XN *.I I I Y F ",
"H.v.z.z.v.R tXVXm.A.x.I R o.U [ q u : = = % i fX5._ | i i / f ] j j j s k g q *XS.R [ o.R 7.,.U J { j J J J k ;XT $.P Y C c d g ",
"NXNXVXzXbXnXAXZXbXlXmX%XdXjXsXoX+X$XOXOX X|.-XvXvXvX:X:X-X:XfXsX&X&X*X&X-X$X-XCXcXtX&X&X-X:XhXxX;X,XvXvXCXCXCXZXsX@X*X%X^.$X*X-X",
"5XwX_.[._.{.4X4X5X5X5XiX5XdXdX_.4X`._.4X4Xt.T.` ' 2.^ W ~ $X[.S 5.0.c.7.k.k.9.9.9.k.7.U { xX$X_ +. .+.' T./.^.a. .j j O.e ).dXU ",
"B.i.i.6.u.v.A.n.n.Z.V.H.,.Q.eXo.o.V.o.x.x.c.9. .{ _ / W E 3.y.n h.V j.V &.&.;.@.V @.N $.x ).'.q j J A Z y s h a d T I R N _ eXG ",
"D.D.G.S.L.L.A.m.V.K.Z.A.A .XbXo.B.Z.v.V.M.x.z./ W W / ! - /.y.n I R #.g.-.g.&.@.$.$.$.-.m T.tXf K R U R H K Z Z S Z C R P k wXN ",
"F.p.5.i.| ( c.z.B.F.v.z.[ r.eXO.z.V.v.z.O...! u W E i ' / >Xt.S [ H D I Y Y Y I F G Y I z $XT.$ j X.U K Z Z 6 Z a 6 J A c 4.wXC ",
"kXfXhXvX:X:XcXcXZXlXkXhXjXxXCXbXlXjXgXsXdXcXhX:XvXvXhXxXnXZXcXhX-XsXsX-XhX>X>X=X;XsXhX-X-XvXvX;X:X:X:X-X:X:X=X;X$X$X-X=X.X=X>X=X",
"t.'._.a.Q.E.dX'.2X7X5X5X5X3X5X0X7X3XK.3Xu.hXQ.i.y.C.7XB.B.p.p.y.w.G. .y.[.kXB.D.K.F.C.5XD. .s.B.2XC.u.,._.cXp.9.[ X.U P H A K K ",
"| 5.| a.! /.mXB.C.K.Z.Z.A.Z.Z.m.n.Z.M.M.o./...o.Y k.x.R =.Y R U P Y R P q.yXU k.l.Y ,.,.c.[ o.*.Y Y U ,.j 8X-.M N N N I N N A b ",
"+.....+.f .XdXF.K.H.J.J.I.L.S.H.I.M.N.b.R e.D.h.=.-.=.*.-.Y %.N P A R F ^.zXF n.<.I *.R ,.o.R *.P I H =.] 8XN Y U $.I I I I P d ",
"W W ) ~ u T.pXC.S.F.V.C.c.C.D.C.c.v.Z.K.p.$X4XR =.F K b H P b d n v F 9 Q.5Xw K } c Z S } [ U Z U H d [ ) eXN F b I C P C M e & ",
"CXvXBXNXNXCXAXZXZXBXcXNXcXBXBXkXvXhXvX,XxXBXhXsXtX%XsX-X@X-X-X:X&X-XhX&XvXvX$X;X,X=X;X,XcX:XfX:XvXhX<XvX,XCXdX@X].[._.].*X|.).E.",
"iXiXiXiXmXiXiXiXiX0XiXqXG.fXNX!.2.~ 4.t.a.`.3X3X5X3X6X[.`.).:X` ` ` W.` Q ` 1.` W.E.< ` E.xX5X3X3X6X3XC.B.f.5X6X4X`.`.d.t.;X` Q ",
"A.Y.A.A.J.Y.A.Z.Z.U.U.Y.l.r.dX) W q.| B.F.K.H.K.K.H.V.S.Z 3.|.f f = # = @ o O @ @ O o O o 3.L.x.<.n.x.x.<.D c.n.,.,.,.o.0 }.= = ",
"9XY.L.9XP.9XP.H.9XP.Y.Y.Z.w.wXq.) ) i.u.G.K.P.L.L.L.H.V.P .X}./ / t : : @ @ O * = = O * o u P.x.n.n.n.c.x.<.c.z.,.,.,.U d |.: l ",
"A.L.L.L.Z.H.V.H.Z.Z.H.H.V.q.rX| u / y.6.B.0.v.v.k.x.,.x.I 4.2.t k i - $ * O o O * = * : . ' A.-.=.=.,.*.I I U U U F Y F j }.= : ",
"lXlXlXlXyXkXbXlXjXdXgXgXtXfXcXsX@X%X#X].sXtXfXfXtXtXtXtX-XNXNX;X:X-X;X+X;X XOXOX X-X1X1XOX,XkXtX%X&XdX]..X.XoXoX1X%X]..X$X:X/.E.",
"7XY.P.L.9.hXMXJ.Y.P.H.H.I.J.J.M.M.v.m.V.a.NXiXP.D.K.D.B.`.F.C.D.C.D.F.C.5.<XiXB.C.B.B.B.o.O.f.s.9.O.o.U ( OX, i W j ( j g g j f ",
"A.A.N.M.%.&XaXN.j.N.N.j.M.N.N.-.j.g.h.-.e kXI.:.:.:.;.;.;.-.-.$.-.%.-.-.c  XK.-.Y Y @.b V M N I V N M I n ) l s Z H F v e e v v ",
"n.N.l.<.*.8X9XZ.b.m.M.M.M.M.N.b.n.b.b.-.k BXM.j.j.:.-.g.-.&.;.&.-.l.-.-.n $XK.$.=.P M C N B N V V M M %.v 2.j L K R P b r Z c c ",
"3XG.G.F.F.VXiXx.v.k.B.C.=.7.V.0.V.V.c.z.] xXP.&.=.j.-.F Y o.B.z.-.=.=.R S :X5Xk.c.T H U N M K P P P T I d OX~ Z S K S d a a h c ",
"%XOXOX|.;X>X-X%X%X&XhXfXtXNXhX*XfXtX[.@X-X:XrX{.&XtX].@XhXCXgXtXwXwX4X[.%XtXsXrXwX#X[.[.@XhXtX[.wX&X#X[..X-X.X(.].XX|.+X=X;X;X;X",
"} / p W u a J T 7.7.h.k. .>X_ 7.h.=.7.X.} o.X.0.y.p.y.p.+.jXk.%.,.-.R z.<.-.=.=.=.=.Y %.J *XF.U k.P P R P N I Y b P H b _ hXO.L ",
"7.{ / ] f ] U k.h.h.j.x.T |.| k.h.l.g.=.k.k.=.R o.z.O.z.f hXx.=.-.%.<.b I %.-.%.;.&.#.:.v !.l.F Y P C I I V C M B b M x / 8Xm B ",
"L d % % y d H k.7.%.l.j.I $Xq.P P -.%.%.=.%.R Y o.=.,.*./ nX=.g.&.@.%.x P @.&.#.&.@.@.&.r '.%.N N I N N B V V B M B M 2 / 2XB M ",
"}.3./.` ' ' +._.y.y.D.D.5.hX*X| 5.6X8.i.s.8.y.i.p.a.d.d.e.NX8.k.o.X.k.T R o.o.o.o.R o.o.| xX4Xi. .9.O.X.K 5.T T H } O.H T.[.b A ",
"VXVXVXBXxXnXZXBXjXlXlXgXgXlXgXxXjXfX:X>XOX<XBXhXhXfXhXfXtX-XfX%XsX-X*XdX-XhXxXsXsXfXtX&XfXtXrX#X@X%X].XX].*X:X@XwX@X@X@X@X.X]._.",
"b.N.b.b.-.} cXP.j.N.N.N.b.l.=.=.o.K j f u , tX8.O.R =.R I R 7.R o.o.Z c.g 2.lX<.=.=.$.P =.G N N N N x m 4 i [.V I M F n z x b M ",
"N.N.N.j.&.f kXZ.b.j.j.j.j.h.g.k.T K ] ( W ~ kXk.o.k.R 7.l.-.l.h.,.,.o.l.U E dX-.*.I $.N 9 N N G N B N M N 5 !.N M N P B x x M B ",
"b.g.:.<.N t.ZXl.g.g.I I =.P P h.b s f i f ~ %XP P I F =.-.*.k.k.<.,.<.o.e : dX<.*.N N x 9 F x B m m 4 4 4 y &XB m 2 m 4 2 2 m 4 ",
"5X2Xu.2X6X.XZXyXG.d._.^._.Q.!.q.) ` 4.^ u ) cX[.a.r._.s.u.u.K u.y.y.a. .) }.kXB.9.O.K o.K [ U K [ [ K } K Q.hXi.5.w.i.5.5.| | | ",
"fXjXjXcXlXkXdXdXfXfXgXgXuXxXZXsXrXtXtXsXtX>X>X*X1X1X=X}.^.}.:X[.oX[.oX8X4X8X4X{.d.`.`.{.{..X:X-X%X*XrX!.@XyX].:X&X@X(.T.1.;X-X'.",
"z.V.S.Z.v.Z.k.,.v.v.v.m.Y 4.NXh.l.l.v.l.k.U S a y s d j S = fXx.=.o.=.$.$.G N >.I G G N m & w.<.F b I b P P x v b b e &   1.8.3 ",
"V.z.v.A.M.l.m.l.J.J.m.I.k.) kXn.m.m.l.l.R U I S L L L L d ~ tXR =.<.%.%.-.%.%.*.%.*.*.I 3 W d.%.M I I R F b P C I L 0 X . ` 7.2 ",
"m.x.=.k.v.k.z.k.=.x.n.z.C u cXb.:.g.&.%.e v d 0 a s a w d u #XB I F %.I $.>.>.@.>.>.B m x 5 t.G b I V B z b v c 1 7 X X   < T 3 ",
"6X`.f.`.f._._.8X[.wX4X{.'.$XNXeX4X{.{.~.^.a.T.E.3.(.q.4.6.+XNXy.w.i.p.} y.8.} O. ... .y.] 4.:Xr.r._.r.q.t.| _ W ` ` > > > E.'.5.",
"eXXX.X].oX$XBXbXmXuXuXmXeXeX4X5X8XrXuX5X6X_.NXzXyXyXtX#XrX%X#XrXXX.X].].E.}.<X-X-X-X%X&X@X$XoX'.].$X-X.X.X$X<X).(.^.^.4.1.r.4.4.",
"o.K g / ..s $XF.-.-.-.I $.I P I F I *.Y I 9 %XK.h.#.&.%.I =.<.=.F Z e w % + @X7.I I P F F A U n B A D n F 6 ' D v 6 w w & X % q ",
"T { f t ( S oXP.<.<.=.=.M I *.*.*.*.I =.Y n #Xv.%.h.-.h.R I I %.I K Z q X * fXI I I I G N F F M C P F n M X 2.J d w 0 5 & . 5 r ",
"w t = @ t a .XV.N =.*.G n Y k.P G N I I C 1 {.g.%.;.I I I F I V n Z h %   > <XR m 2 N m B m m m x x x 9 4 X E.a w 5 X X X + & 1 ",
"2.}.1.R./.4.cX`...O.X...y.{ 4X`.y.y.`._.w.e.xX`.8.0.6.r._.) t.t.t.e.q.: > ` >X[.[ 6.s. ...w.| 8.5. ._ ( q.^ 1X@XE./.W.1.` ^ , E "
};
