/* XPM */
static char *m2_resized[] = {
/* columns rows colors chars-per-pixel */
"32 32 210 2 ",
"   c #58463F",
".  c #6B4432",
"X  c #564845",
"o  c #644F49",
"O  c #6D554B",
"+  c #74574C",
"@  c #765B4F",
"#  c #7C5A4D",
"$  c #735241",
"%  c #675750",
"&  c #765E54",
"*  c #7E5F52",
"=  c #715F58",
"-  c #73625B",
";  c #7A665B",
":  c #7D6861",
">  c #855C4B",
",  c #9D5E43",
"<  c #835E52",
"1  c #A95F40",
"2  c #83604E",
"3  c #8E604D",
"4  c #96634B",
"5  c #9B654D",
"6  c #856353",
"7  c #8A6555",
"8  c #81695D",
"9  c #8D6B5C",
"0  c #956651",
"q  c #9A6751",
"w  c #9D6953",
"e  c #966C5A",
"r  c #9D6F5D",
"t  c #916955",
"y  c #97705F",
"u  c #9C715D",
"i  c #A56345",
"p  c #A66649",
"a  c #BC6944",
"s  c #B56C4C",
"d  c #BB6D4B",
"f  c #B76744",
"g  c #BB704F",
"h  c #A36C54",
"j  c #AD6E52",
"k  c #A16E58",
"l  c #B26E52",
"z  c #BE6E50",
"x  c #AD7257",
"c  c #A4735C",
"v  c #AC745C",
"b  c #B47254",
"n  c #BC7354",
"m  c #B3755A",
"M  c #BB765A",
"N  c #B4785F",
"B  c #BC795D",
"V  c #856D63",
"C  c #8C6D61",
"Z  c #8D7469",
"A  c #867169",
"S  c #947465",
"D  c #9B7362",
"F  c #937568",
"G  c #9A7768",
"H  c #92796D",
"J  c #9B7A6B",
"K  c #9D7867",
"L  c #8C7B74",
"P  c #8B7D78",
"I  c #867974",
"U  c #947E73",
"Y  c #997F73",
"T  c #907F78",
"R  c #A17663",
"E  c #A97760",
"W  c #A27865",
"Q  c #AC7B66",
"!  c #A37D6C",
"~  c #AB7D6A",
"^  c #B47C63",
"/  c #BC7D63",
"(  c #B27F69",
")  c #B07761",
"_  c #C26D48",
"`  c #C6724D",
"'  c #C8734D",
"]  c #C37454",
"[  c #C97550",
"{  c #C47B5C",
"}  c #CC7D5B",
"|  c #C57857",
" . c #D07E5B",
".. c #D07C56",
"X. c #C37E61",
"o. c #CF7F60",
"O. c #8F837D",
"+. c #968176",
"@. c #9C8275",
"#. c #9B857C",
"$. c #99857C",
"%. c #AD826E",
"&. c #A5826F",
"*. c #BC8065",
"=. c #B3826C",
"-. c #BB826A",
";. c #A48273",
":. c #AD8473",
">. c #A48679",
",. c #A48A7D",
"<. c #AB8B7C",
"1. c #AF8875",
"2. c #B38672",
"3. c #BB8670",
"4. c #B48976",
"5. c #BB8A74",
"6. c #B38D7B",
"7. c #BB8E7A",
"8. c #AE907F",
"9. c #B7907E",
"0. c #BC917E",
"q. c #D3805C",
"w. c #C48265",
"e. c #CB8364",
"r. c #C5866B",
"t. c #CB866A",
"y. c #C4896F",
"u. c #CC896D",
"i. c #D38564",
"p. c #D88562",
"a. c #DB8966",
"s. c #D18769",
"d. c #D48C6D",
"f. c #D98D6D",
"g. c #C08670",
"h. c #C38B73",
"j. c #CB8D73",
"k. c #C18E79",
"l. c #DA8F72",
"z. c #CF9177",
"x. c #C3937D",
"c. c #CC947C",
"v. c #D59173",
"b. c #DB9274",
"n. c #D1947A",
"m. c #DC967B",
"M. c #D3987F",
"N. c #D99A7F",
"B. c #E48F6A",
"V. c #E5916C",
"C. c #EA956F",
"Z. c #E29474",
"A. c #E4997A",
"S. c #9C8A82",
"D. c #998B85",
"F. c #9D908A",
"G. c #A48E83",
"H. c #AB8F82",
"J. c #B38F80",
"K. c #A69085",
"L. c #AD9185",
"P. c #A2938C",
"I. c #AB948A",
"U. c #AF998E",
"Y. c #B49384",
"T. c #BA9584",
"R. c #BE9887",
"E. c #B3968A",
"W. c #B5998C",
"Q. c #BC9B8C",
"!. c #BA9788",
"~. c #A79790",
"^. c #A79890",
"/. c #AC9B92",
"(. c #B39C92",
"). c #BA9E91",
"_. c #AFA49E",
"`. c #BDA194",
"'. c #BBA59B",
"]. c #B8A49A",
"[. c #B8A9A0",
"{. c #C39581",
"}. c #CE9781",
"|. c #C49986",
" X c #CA9983",
".X c #C39C8B",
"XX c #CA9E8A",
"oX c #D49B83",
"OX c #DC9D85",
"+X c #D29F8A",
"@X c #C19F90",
"#X c #CDA08C",
"$X c #C4A08F",
"%X c #D4A38D",
"&X c #DCA38B",
"*X c #C4A293",
"=X c #CCA494",
"-X c #C3A69A",
";X c #C5A99D",
":X c #CCAA9B",
">X c #D3A592",
",X c #D6A995",
"<X c #D5AA98",
"1X c #E0A38C",
"2X c #CCAFA2",
"3X c #C1ABA1",
"4X c #CDB2A6",
"5X c #C2B3A9",
"6X c #D4B2A3",
"7X c #D6B8AB",
/* pixels */
">.: P  Xj.x.7.:.:.( E.}.y.j.y.*.D 9 ,.3.N x k e 6 * A 4.R F V F ",
"8 & L M.r.t.B ^ X.{ 6.j.X./ e.c 7 t ,.w.l h q < @ @ Z ^ w < + > ",
";X.X2X:X-X@X3X=X|.{.XX Xx.6.(.E.K.Y.Q.!.J.G.G.G.D.D.~.K.T D.#.Y ",
"A.A.Z.b.z.r Y.m.i.a.p.i.a.l 6.l.e.e.w.w.X.D 1./ D r k k x r G # ",
"<X+X+X#XY.T ).+X X}.}.}.}.=.H.{.x.0.0.7.<.#.E.J.Y Y 6.( ( ! Y : ",
"oX7.L 2X1XOXOXOXz.n.4.L.5.7.7.4.x.g.! Q.:.Z K ^ ^ ^ ! W.r V C ! ",
"/ C o |.b.n.l.f.f.a./ ! ^ ) ^ { w.e.G K.6 9 h l j n c H.w < w x ",
"2X@X-X6X<X<X=X;X).L.K.I.T.T.J.;X|.{..XQ.!.!.!.`.7.T.T.Y.6.Y G.E.",
"Z.V.C.B.B.V.o.Y e < < 4 n z h R.p.....q. .} n 5.[ d d d s l 1 F ",
">X>X,X,X>X>XXX(.K.T +.<.J.6.6.;X#X}.x.x.T.{.7.Q.{.5.7.k.( ( W K.",
"}.}.oX2XOXz.5.( G A = F.}.~ ! J 2.4.( Y.XXh.h.*.Q ^ ^ H.4.x / ^ ",
"z.d.d.:XOXo.X.v 9 8 @ I.7.W R W Q W c >.c.X.w./ Q ^ m <.g.{ j x ",
":X;X-X4X:XXX3X@XE.U.E.~./.G.~.W.9.T.9.Q.|.7.).].L.U._.[.J.1.H.(.",
"h.2.t.i.u.d.2.{.X.t.e.R 9 6 H m d ' [ _ d _ ~ Y p j q , h f E g.",
"@X).W.@X<XXX).2XXXXXR.K.P.I.[.).9.9.x.0.k.7.(.~.Y.Y.Y.<.;.4.<.W.",
"<.6.I.-X XoXoX}.oXv.T.6.h.z.h.-.-.=.`.c.j.k.5.g.h./ Q.g.) B m v ",
"@.K #.=Xn.n.n.M.d.d.9.5.B N B b x b Q.*./ N *.N m v 6.N b n n q ",
":X4X4X7X6X:X4X[.I.].;X=X$XQ.W./.K.F.P.F.F.D.[.*X*X*X`..XR.9.U.O.",
"b.Z.b.b.b.C.h.8.C %.z.v.l.e.:.+.# O   X o X - d.e.i.] e.X.n J ; ",
",X%X#X>X%X#XQ.).<.Y.Q.#X Xx.W.U.G.@.P P O.+.#.#X0.0.4.6.6.2.I.L ",
"m.d.$X&Xf.v.b.f.d.w.Q.N.t.u.j.t.j.t.!.}.r.w.*.*.B m &.Z c c r h ",
"n.u.#X&Xt.z.d.u.u.w.W.v...{ w.w.e.| 8.c.B x g b b b &.J N v q h ",
"8.#.,.9.0.x.).W.x.5.T.0.T.9.'. Xh.5.x.x.7.3.!.x.7.3.7.2.%.%./.Y.",
"u 6 3 b M q.1.%.' w.| n / N Y.e.` g d ' ' _ %.B s s f f f 1 %.d ",
"'.`.W.'.$X#X-X`.R.!.E.)..XQ.`.R.T.6.T.|.x.0.`.!.6.4.9.9.4.1.L.=.",
"f.a.-.=Xa.i.q.w.( u L R.{ *.w.w.X./ ;.|.| n b d g a w =.d l i l ",
"z.r.Y.;Xy.2.4.=.K F U `.=.3.r.-.3.-.@..XB m v m v b ! Y.m v x v ",
"$X#X>X#X#X#X`.;Xx.{.0.<.,.>.@.Q.k.5.h.3.-.*.~ Y.7.=.4.4.9.y O.9.",
"e.e.e.w.i.i.&.#Xq.{ j 5 0 5 C 5.] ] ` _ d f 4 ( d g i i 5 . O b ",
".XY.!.;X$X$XQ.$X.X|.Y.(.W.H.W.).6.1.<.E.Y.9.L.E.L.L.8.#.@.A +.>.",
"v e G |.q.w.n n M | b  Xq.} | { x 0 = J.n n b d l b q &.5 3 . 2 ",
"+.: H R.B m N 3.^ / ~ 0.B ( ^ Q Q 6 : R.x m b x x h e #.J 8 - 7 "
};
