/* XPM */
static char *m3_resized[] = {
/* columns rows colors chars-per-pixel */
"64 64 222 2 ",
"   c #5A3C2C",
".  c #513A2B",
"X  c #5B3E31",
"o  c #663B2C",
"O  c #663D31",
"+  c #733F32",
"@  c #5D4233",
"#  c #5E4A3A",
"$  c #594837",
"%  c #6A412E",
"&  c #634234",
"*  c #6C4334",
"=  c #644C3B",
"-  c #6C4C3B",
";  c #684739",
":  c #754435",
">  c #7B4336",
",  c #754934",
"<  c #7A4B34",
"1  c #75463A",
"2  c #7C4639",
"3  c #744B3C",
"4  c #7C4B3C",
"5  c #6A513E",
"6  c #73503E",
"7  c #7C523D",
"8  c #7F5037",
"9  c #73452E",
"0  c #664E40",
"q  c #6E4D41",
"w  c #734E41",
"e  c #7D4E41",
"r  c #635344",
"t  c #6C5444",
"y  c #6B5847",
"u  c #6D5B4B",
"i  c #685748",
"p  c #735443",
"a  c #7C5443",
"s  c #7C5945",
"d  c #735548",
"f  c #7B5649",
"g  c #745C4C",
"h  c #7B5C4C",
"j  c #755947",
"k  c #6B5F50",
"l  c #755E50",
"z  c #7E5E50",
"x  c #74604F",
"c  c #79604E",
"v  c #6C6252",
"b  c #756353",
"n  c #7B6453",
"m  c #7E6956",
"M  c #7B6558",
"N  c #7D6B5B",
"B  c #756858",
"V  c #7E715F",
"C  c #77715F",
"Z  c #7D7362",
"A  c #814537",
"S  c #81463A",
"D  c #834B3D",
"F  c #8A4D3E",
"G  c #824836",
"H  c #904F3E",
"J  c #85523C",
"K  c #8A543E",
"L  c #815037",
"P  c #91543F",
"I  c #844E41",
"U  c #8A4E41",
"Y  c #904F42",
"T  c #845243",
"R  c #8C5343",
"E  c #845A45",
"W  c #8D5A44",
"Q  c #84564A",
"!  c #8C5549",
"~  c #845C4C",
"^  c #8C5C4C",
"/  c #935445",
"(  c #985646",
")  c #935B45",
"_  c #995C46",
"`  c #935649",
"'  c #945C4A",
"]  c #9A5C4B",
"[  c #985748",
"{  c #8C5E52",
"}  c #855C50",
"|  c #935E51",
" . c #9B5E50",
".. c #A15D4C",
"X. c #A05E50",
"o. c #83614D",
"O. c #8D624D",
"+. c #966047",
"@. c #9A6047",
"#. c #94624C",
"$. c #9B634C",
"%. c #9F694F",
"&. c #95684F",
"*. c #836454",
"=. c #8C6454",
"-. c #836956",
";. c #8E6953",
":. c #826659",
">. c #846C5B",
",. c #8B6D5C",
"<. c #8E675A",
"1. c #946454",
"2. c #9B6553",
"3. c #926A55",
"4. c #9D6A54",
"5. c #95675A",
"6. c #996759",
"7. c #946C5C",
"8. c #9C6C5B",
"9. c #85705E",
"0. c #8B715E",
"q. c #94715D",
"w. c #9B725D",
"e. c #9D7057",
"r. c #A1654D",
"t. c #A2694E",
"y. c #A16653",
"u. c #A36B54",
"i. c #A96D56",
"p. c #A36D5A",
"a. c #AA6E5A",
"s. c #A86655",
"d. c #A3725B",
"f. c #AA735B",
"g. c #A97358",
"h. c #B2755C",
"j. c #846F60",
"k. c #8A6E60",
"l. c #9C6F62",
"z. c #966C63",
"x. c #847363",
"c. c #8B7463",
"v. c #867867",
"b. c #8C7966",
"n. c #8B7768",
"m. c #8C7B6B",
"M. c #867969",
"N. c #937564",
"B. c #9C7462",
"V. c #947966",
"C. c #9D7A65",
"Z. c #957668",
"A. c #937C6B",
"S. c #9A7D6B",
"D. c #9E7669",
"F. c #947F70",
"G. c #A27462",
"H. c #A47B65",
"J. c #AC7A64",
"K. c #A47669",
"L. c #A37B6B",
"P. c #AB7D6A",
"I. c #AD7561",
"U. c #B27C63",
"Y. c #B27B67",
"T. c #A37973",
"R. c #A97C72",
"E. c #8D806F",
"W. c #93816E",
"Q. c #9D816E",
"!. c #8E8271",
"~. c #948373",
"^. c #9B8473",
"/. c #958976",
"(. c #9D8976",
"). c #9C8778",
"_. c #958979",
"`. c #9B8B7A",
"'. c #9D917D",
"]. c #A3816D",
"[. c #AA816C",
"{. c #AE846B",
"}. c #B3866C",
"|. c #A38472",
" X c #AD8673",
".X c #A48975",
"XX c #A98974",
"oX c #A4817B",
"OX c #A38D7B",
"+X c #AB8C7B",
"@X c #AC877B",
"#X c #B38A74",
"$X c #B58978",
"%X c #AC917E",
"&X c #A0927F",
"*X c #B6917B",
"=X c #9A8F80",
"-X c #9D9280",
";X c #AB8A83",
":X c #B18F8C",
">X c #A39583",
",X c #AA9482",
"<X c #AB9885",
"1X c #AC9E8C",
"2X c #A59A88",
"3X c #BB948A",
"4X c #B29D8A",
"5X c #B59587",
"6X c #B59996",
"7X c #BB9A94",
"8X c #BAA08F",
"9X c #BCA19E",
"0X c #BBAB98",
"qX c #BCA4A4",
"wX c #C29E8F",
"eX c #C19D94",
"rX c #C4A39B",
"tX c #C4A297",
"yX c #C4A08C",
"uX c #C1A6A3",
"iX c #C7ABA8",
"pX c #C9B1B1",
/* pixels */
"A.F.F.m._.2X~.).A.S.A.Q.A.A.Q.A.c.m.~.~.'./.m.F.^.^.F.A.).F.F.F.~.m.F.`.-Xm.x.m.m.m.!.n.~.m.n.~.m.m.`.-X/.!.!.n.m.m.b.b.V.n.W./.",
"1 4 e 4 0 `.| ^ ^ ) +.) W ) W W W #.#.3 Z 5.! Q e I I T T I I Q T e T 0 ~.I f f 3 4 Q 3 Q a e w 4 3 g =X;.W 4 7 a 4 7 4 < 7 7 4 ",
"* : 1 4 @ >.' T D D 4 4 L J D L 4 J K , $ { I 4 1 4 D 2 2 > S e 1 4 Q   u ` I 1 : 4 1 : 1 1 : 1 + 2 O N O.8 8 4 < < < < < 9 , , ",
"* 3 : 2 ; b.2.W ^ K K W K J D T L J W % r ^ 2 1 + 2 4 e 4 4 e 3 4 I I X z R e 1 1 1 1 1 1 2 2 4 e w * N O.< 4 < < < 9 9 9 < : : ",
": e o + # F.^ R J R J L 2 < 4 4 2 D 4 @ i T 2 A D > + : : + : + + 2 : . l U I D S D D D S D I I U D 1 b.3.J 7 4 8 , < < < K 7 , ",
"i 0 i M N /.F.m.~.n.V 9.v.x.b b l l b v M.E.m.b g l l M l g l i g u u B m.n q t p t d j h l l l d *.N ~.-.5 = = 5 5 t u y j y = ",
"f f { ~ =.^ ^ | 6.6.6.{ n /.=.^ | Q ~ 5.o.1.5.{ <.1.=.>.1X.Xz.q.C.B.q.C.3.3.1.<.7.,.:._.~.} 5.{ } =.5.{ <.~ T E ~ s x '.W E O.#.",
"I I D S 1 I D D D K _ / : n [ F > + A S > S > + S 2 D O m.L.P ) K R D R K J ) ) K / T = <.D D U D S D U F S D F 2 : o v.#.< K ) ",
"U I I I 4 4 I I S I ` [ 3 u R 2 3 4 2 1 2 e 2 4 4 D 2 : x [.K K J D D T 4 4 J K K J ) $ =.! e U 4 2 4 D 2 A U I : D 4 B #.J 4 < ",
"R R U U I I I U A R ` ..- l I S 2 I S I I D I D S U D > i e.K P R K ' W K W R K K W ) # { R U U U ` U 2 F _ U F G _ 4 k #.K K < ",
"f a e a e e 3 f a T a a i m.*.q - 3 w w 1 - 1 3 w q s t v V.E s c E p s a j s 7 7 - 5 k Z.~ a s a a a a E e w f f :.b v.W.-.o.b ",
",.b.c.N M.~.>.n.F.n.>.n.`.>X`.F.m.A.n.m._.n.c.b.x.j.b.9.b.Q.V.W.^.n.>.E.~.c.b.c.9.m n.(.).m.x.b.v.x.x./.n.M >.>.N 0.N.c.Z.c.V.S.",
") +.$.R ; S.[ R D ` U R ` D [ .._ ) ' 3 ~.g.%.) R R ) W K K K ) #.W K # V.W #.$.u.u.%.$.+.' ) ) W 2.3 9.6.D A S F 2 S A D F A G ",
"K D J ) = V.$.R S I U I D I I / R D / * b 4.W R K J K J J W O.W J W +.# *.G.1.#.) W W ' W W W K K J * b 2.2 2 2 2 > : + > 2 D A ",
") K _ ) 5 Q.R F U ! ! U U ! R ` R F ' 3 V %.K R J D D L J J W +.+.+.#.= 9.p.B.6.8.1.^ +.) W J K +./ , B 8.S D D I A 2 2 F D F Y ",
"K E ! 7 r ).#.T a ! T e I e I T ! e 4 = W.%.K K J L J L J L J K J W J $ n W W ^ o.O.^ J J J L T W T X Z z.> 4 2 D 4 4 2 2 2 4 I ",
"b.m.~.m.-X1X).`.`.>X~.m.)./.m.!.~.m.!.`.>X9.m b x m u m N x x t m g t b n.9.9.-.n -.m N W.b.c.c.c.c.9.~.~.9.N b b n b Z N l l b ",
"1.1.^ { 6.p.1.6.6.6.p.^ l <X3X5X@X XL.d.8.6.8.8.e.;.;.*.-XH.e.e.&.&.&.d.4.4.%.%.%.&.#.m %XJ.g.4.4.%.u.%.4.u.u.&.W E ; m.5.4 I U ",
"U I 4 2 I ` U D / Y ` U X ^.rX6X:X;XK.1.) ) @.) P K P 3 x.f.%.%.P +.) @.) @.) W $.) u.5 w.@.) @.@.P ) K +._ ) W K ) * t ` 1 : I ",
"D 4 e e I I 4 I I T R U = ;XeXpXqX6X6XT.W W ) W W O.+., m.d.+.W +.K ) K W ) #.+.%.' +.p =.) $.@.$.W ) R ) ' W +.J R - g 2.I > 2 ",
"` ` R D 2 U D I R I ` D t A.R.7XuXiX6XD.' W W W W W R = ~.#.L K K K K O.W J K W E W L $ -.) W 7 K L J J J J D 4 * W = >.2.R R / ",
"n *.z d ,.k.} z j h t $ k `.m.x.M.x.M.>.x.b.n.N v.m.E./.>XW.-.n b 9.m 0.m V N Z 9.N N x.).F.v.v.x.N n n b k n g u N V _.W.>.9.9.",
"=.,.,.C.c.>X|.7.3.w.7.N.C.[.H.w.D.w.w.7.>.`.<.3.3.=.w.q.q.d.q.w.3.w.;._.XXe.e.J.H.f.d.d.d.w.w.d.4.e.*.n.w.#.{ ^ ' { | | 6.| O.1.",
"U [ / [ F -.p.2.) R ) $.u.&.) ) $.' ' ) X j J 7 4 7 K K J ) 8 K ) P K y e.%.%.i.$.$.$.$.) W @.$.$.' L @ / S S D D > + A A S + A ",
"I D T R I h d.$.W ) ) W W J W W W W W ' & c +.J 7 J 4 , 3 3 < 4 W J 4 = ;.O.K K W K W ) R K K ) ' L W # R A > 2 I > S > S A S 2 ",
"D U ` 2 4 M J.t.$.$.) ) ) +./ K ) _ ) t.; n t.) R K D 7 4 < 7 D 7 K D t 3.t.%.+.) P ) _ _ ) ) $.$.W J 5 R H ` / F D D S D U U U ",
"3 Q a f *._.B.7 E 7 T 7 7 7 4 a 7 W O.E = n ^ 7 7 6 6 6 3 3 3 p 6 5 s u 9.;.o.s a p p a J s s J p 7 ; r c.f d p w w w ; q q w w ",
"S.N.A.^.^.^.V.*.9.9.b.N Z !.9.x.x.>.M >.M V.k.n h h h m !.>.k.N.9.,.,.N.Z.<.h c j p g !.b.h h p j h d n S.Z.<.,.c.n.j.`.N.7.,.N.",
"y.] ] ` [  .]  .]  .$.` h A.` ' r.X.`  .` ` ` ` ` ) ] f ^.y.' R U U R I R / R / [ ` D n 1.F / / ] [ R ( H F Y F R [ - S.y.@.@.] ",
"I F U I U R U Y ` R R F @ f R D P ` U I U ! U ! R I ` 1 d 6.R 4 e e 4 I 2 T U U I U I q { ` D I D D F U U U U F U F * -.$.) R ) ",
"U R I I I U ! I U ! R R X } ] I S R U I I I I I ! R R w l y.` U U ! Y U R ] ! U U / ` r ^ [ ` ` U / / / U U D D R F = >.$.W L K ",
"D 2 4 D I I U F U D ` : X *.` I ) U 4 4 4 1 I S 4 D 2 & u 1.! T 1 e a T e e Q I a I 3 i =.e T e 4 D D 1 e 4 1 4 S 1 $ c.W J 7 J ",
"*.n n *.>.-.b d t j n = b ^.N.h *.h -.>.V N b.n.x b B x./.`.b.V x.n.c.E.E.A.c.x.Z.Z.m.F.F.k.j.z l i u v.M B N x.j.:.v.=XF.j.N M ",
"4.8.p.&.f ~.L.6.1.2.6.2.p.p.i.y.u.u.p.^ b.P.p.p.e.8.4.d.q.e.H.e.^ f.W b <XP.R.R.T.l.z.Q I ! I ! I I O j.| I T } I Q ! T ! I ! ` ",
") t.u.$., g y.U / Y / [ _ ( ] ( _ .._ ' t u.) J ) K K K P K K O.W O.% y +X@X:X;XoXoXT.z.I I I U I U + 0 I 2 D > 1 I > 2 2 > U D ",
") 4.$.t.3 y 2.D U R I U / / ` ` ` [ ` W t #.) ) K J L J J 7 K W W E , N 4XtXiX9X6X6X:XD.| ` ` I ! ` O u 2 I D 4 U U I I S 2 2 2 ",
") ) ) P * h #.R ` R I F D R D U D J U 2 = ' _ +.) W K K K K K L #.W L u  XJ.$XwX3X3X;XK.y.( [ U U + ; t S S R S A 2 A 1 2 + + > ",
"h x ,.s j m.(.0.-.x.>.N 0.n n b h t y g Z A.0.0.,.>.,.*.n m -.0.V.-.-.N <X,.z *.M >.j.>.n >.>.l d d i x.^.v.W.A.>.-.m M M M *.n ",
"5.B.C.z.5.G.D.w.H.B.L.z.9..Xw.B.w.d.e.G.H.d.w.&.w.H.d.0.&X*X}.{.w.w.w.w.H.C.7.3.w.w.=.~.,XH.G.3.5.1.5.5.B.6.7.G.7.=.b.4X[.H.J.6.",
"[ ` ` ) R H ( / / F / ( * o.t.' $.$._ ' ) $.) W ) t.%.7 W.{.+.) / W ) ) ) $._ _ $.$._ d p.r.F U Y F D S D D S D F A @ ,.$.P _ ) ",
"T Q ! | | `  . .` ! R ] 3 E $.W ) @.) ' ) R K K +.+.$.7 Z f.+.) W K K +.) W ) ) ) W ) j 1.[ I K R U D I I I U U T U & f $.W K K ",
"R ` ` ` ` ] X. .] ]  .[ * p r.@.P K ) _ @.r.@.@.%.t.t.J C f.@.%.P K K K K ) ) ) ) +.K g p.r......./ / / ( ( Y ] ` [ & *.u.$.K K ",
"*.{ f f Q } Q f ~ E T a r N C.;.s E o.O.;.O.o.O.&.O.#.- C Q.;.&.o.=.~ c s o.o.o.o.s h M..X;.=.o.~ T ^ f a Q Q a a a # x.q.o.5 p ",
"S.Z.Z.n.x.=X=X~.`.OX`.`.%X+XOX^.V.S.V.Q.`.>X.XV.N.q.-.0.Q.XXQ.Q.|.].V.(.>X~.w.0.,.q.V.].XXC.C.0.,.,.>._.F.x.j.:.M -.n.,XOXA.c.N.",
"U R X.' 2 x. Xy.p.u.u.$.t.$.t.h.h.%.g.+.p XX{.r.t.$.t.r.$.@.@.$.t.%.%.;.<Xd.%.t.$.%.%.t.%.t.%.u.u.u.7 x.6.! R R U U ]  .r.( / U ",
"I 4 ` 4 4 M u.) ^ R W W K K W O.+.+.K %.5 q.t.+.O.W ) ) W +.) ) @.W O.9.q.+.W +.$.$.+.+.+.+.+.@.$.4.p >.#.D I I I I I U / U U Y ",
"! 4 D D ^ h p.#.' $.+.R W K K +.@.+.+.@.= ;.g.g.+.+.+.#.) $.+.+.%.$.+.m q.+.W ) $.) K W +.+.+.+.$.) Q m u.` / R U Y U R U > U Y ",
"e O ! e 4 u 1.T W W W W ) ) P K O.K 7 J k q.q.e.O.K E 7 J O.K O.^ W 7 y (.E O.o.o.E +.W +.O.O.W O.7 j b.4./ ` K D U T D * a d.^ ",
"x.n.<X`.m.>X>Xx.x.>.x.N >.x.N b t g b v.`.<XV.9.M b m N E.m.x.c.j.n.A.^.<XOX.XS.V.V.m.!._.m.F.n.b.W.OX<X^.n.N x.b.E./.x.V M.m.M ",
"8.5.6.6.8.8.5.6.8.6.5.5.~ `.{.u.a.h.a.i.u.y.p.d.d.%.d.&.~.yX*XiXrXtXeX#XJ.Y.J.}.J.{.#.m.5Xy.i.a.i.i.u.2.p.2.y.| 1.Q n.7X^ 1 1 R ",
"R U I I U D D U U / 4 I % N 2.) _ @.r.r.] @.$.+.@.+.@.W x wXrXpXuXtX7X@XJ.p.p.f.G.d.1.b 8./ [ [ ] ( [ / / ( ( / U > l +XO o I 1 ",
"| Y U I I I I I I ! I I 3 >.8.) ) @.i.r.@.@.) +.W ) #.J m 7XiXpXqXuXrX@XB.1.5.G.B.K.| b p.] ` U / R R U U / F R / > b *XD I R D ",
"X...( F I D I e e U R I 4 B p.] @.@.u.@.r.$.) _ ) $.R < b |.R.6X9XqX9X;Xz.^ | 1.1.1.T u 6.R ! T U D R / U ( _ _ F 9 9.+XH ( Y H ",
"7.<.3.~ =.o.~ h *.h f f u Z W.*.>.*.-.-.0.-.*.>.*.n j t !.OXV.x.m.m.x.n.x.k.c.0.,.>.x.E.>XF.V.x.x.b.c.j.>.<.-.m >.b -X,Xk.*.-.*.",
"|.].A.^.A.'.<XT.T.S.B.q.S.[.].N.|.L.7.q.'.,XZ.B.B.z.7.7.B.z.B.8.G.z.5./.,XK.K.K.l.l.B.8.l.l.B.5.8.l.F.,X[.{.w.w.#X}.[.C.L.H.L.].",
") p.u.r.#.c }.I.' ` ` ' ` [ [ U ` ` ) D n J.[ R R ` [ ` R R K `  . .R l B.( ( .._ ( / [ ( / ` / U / p V.i.t.$.+.i.$._ @.) @.$.t.",
"R +.4.+.#.t d.a.2.! T I I I I Q ^ I ' ! n d.] ) T ! ! ! ! ! ! T ! ! D n L.( ` ` ` ` ` ` ` ! ! ! R [ d V.%.) _ ) ' ) ) ) ) ' $.$.",
"W ) t.$.^ r u.2. .` I I ! I I T T R ` : -.#Xs.2.` / ` R I ! ! R ` I K *.L...' ` ' [ U I I U ` R R ' f Q.u.$.@.) ) ) W K ) ] y.u.",
"E h 3.3.o.N T.1.Q Q p a e a w p p T 3 - _.+X1.#.^ } f ~ } Q a ~ { ~ f x.,X-.n ~ *.f h g z o.*.b M b.b.>XA.V.N.,.*.c -.c.q.*.~ o.",
"(.^.^.A.W.OX,XF.A.n.V.!.'._.^.~.V.W.V..X%XOX.XA.A.S.S.~.-X1X(.^.F.A.A.Q.+XXXL.].].S.V.`.6X.XXX|.S.|.*X+X.X+X|.oX|.].~.1X%XXX^.(.",
"p.2.2. .y.a.p.p.I.I.a.1.j.0X#Xf.f.f.p.u.%.t.i.2.$.$.u.' /.*Xf.$.2.$.) _ $.$.2.u.4.f.a.-.5Xs.a.y.'  .2.[ ! Y U  .4.) 3 W.h.h.f.g.",
"' ' ` ` `  .` `  .| ] R = ,Xf.#.) _ %.$.4.$.y.2.^ W $.s M.f.#.) R W ) ) ' ) ' +.+.4.u.M K. .! Q I I R I I ! T T ! D ; 0.{.g.W ) ",
"| ` | ! ! ! | ! ` Q 4 ` d ^.f.$.W W #.) ) $.+.#.W O.^ 6 ~.J.4.+.W R R W W W R W 2.2.4.m  X2.! I Q Q I I I ! I e I T 1 >.{.&.7 J ",
"6. . .| ! ^ | ! U I U s.Q m.d.#.#.^ o.~ 1.O.1.$.3.#.7 6 /.d.W W E E E E W E O.O.&.e.W b L.` | { { { ! } Q ! w e { Q d x.d.E o.7 "
};
