/* XPM */
static char *m3_resized[] = {
/* columns rows colors chars-per-pixel */
"32 32 126 2 ",
"   c #703E2F",
".  c #753E34",
"X  c #7B3F33",
"o  c #77452D",
"O  c #6C4436",
"+  c #6E4B3B",
"@  c #754233",
"#  c #7C4335",
"$  c #764A34",
"%  c #7C4A35",
"&  c #7D4639",
"*  c #744D3C",
"=  c #7D4B3D",
"-  c #73523E",
";  c #7F533D",
":  c #6F4E40",
">  c #724F40",
",  c #7E4E42",
"<  c #6F5042",
"1  c #745342",
"2  c #7B5444",
"3  c #7B5846",
"4  c #7A5649",
"5  c #745B4C",
"6  c #7D5B4C",
"7  c #7E5E50",
"8  c #7E614E",
"9  c #7E6454",
"0  c #7E6959",
"q  c #804337",
"w  c #824A36",
"e  c #81463A",
"r  c #844B3C",
"t  c #894B3D",
"y  c #904C3F",
"u  c #82513C",
"i  c #8C533D",
"p  c #91563E",
"a  c #844E41",
"s  c #8B4E41",
"d  c #845344",
"f  c #8B5343",
"g  c #835944",
"h  c #8B5A44",
"j  c #855649",
"k  c #8B5649",
"l  c #835C4C",
"z  c #8B5C4B",
"x  c #925343",
"c  c #995445",
"v  c #945A43",
"b  c #9B5D45",
"n  c #905649",
"m  c #935C4B",
"M  c #9D5E4A",
"N  c #825F51",
"B  c #885E50",
"V  c #945E50",
"C  c #A05F48",
"Z  c #85624E",
"A  c #8C614D",
"S  c #9E6247",
"D  c #93624C",
"F  c #9C644C",
"G  c #836453",
"H  c #8B6553",
"J  c #846957",
"K  c #8B6A56",
"L  c #866658",
"P  c #8A6758",
"I  c #856C5B",
"U  c #8C6B5B",
"Y  c #936453",
"T  c #9B6552",
"R  c #936B56",
"E  c #9C6A54",
"W  c #95675A",
"Q  c #9D6658",
"!  c #936D5B",
"~  c #9B6B59",
"^  c #85705F",
"/  c #8B705F",
"(  c #94715D",
")  c #9C735D",
"_  c #A9664E",
"`  c #A36D55",
"'  c #A26C59",
"]  c #A3725B",
"[  c #A8715E",
"{  c #876F60",
"}  c #8C6D60",
"|  c #837060",
" . c #8D7362",
".. c #8D7B6B",
"X. c #937463",
"o. c #9B7563",
"O. c #927965",
"+. c #9A7A66",
"@. c #947C6A",
"#. c #9C7D6C",
"$. c #A17460",
"%. c #A67960",
"&. c #A27B68",
"*. c #B07F65",
"=. c #A47672",
"-. c #A77B70",
";. c #9E806E",
":. c #9A8371",
">. c #9E887E",
",. c #A3826D",
"<. c #AC8068",
"1. c #A48473",
"2. c #AA8673",
"3. c #A48976",
"4. c #A08478",
"5. c #A58A7C",
"6. c #A48F87",
"7. c #A6928B",
"8. c #B59486",
"9. c #BD978E",
"0. c #B69190",
"q. c #BD9E9B",
"w. c #C19A97",
"e. c #C8A8A3",
"r. c #CBAFAE",
"t. c #D1B1AE",
/* pixels */
"G G ..X.R R R K R U  .U P P P P L {  .7 G J L G 7 .. .G Z G Z J ",
". . 5 n w r w w u @ 1 & # # # # & O 4 e @ . . # . 5 h # o o o o ",
"+ : | X.K G G 6 4 5 0 l 2 4 4 1 2 5 G 2 2 4 4 6 4 P J * - - 2 1 ",
"2 j j z Y m J z a j l l j 6 :.Y H H z z z J P k j z d 2 * 9 A h ",
"s r & e e x 1 & . # # # & @ J p r r w u i - d r r e r r w 6 h w ",
"G G L G L N ..} G J J l 8 8 / K K J K Z l I X.Z G P G 6 G | / U ",
"n h G m a f f m m d ( D h h h D D 3 U E R F D n k 6 z & = & w a ",
"h g I Y j k d d d 3 U i ; w u u h - J Y A h g g g 5 H & = & = d ",
"! U #.+.+.! ..6.+.+.o.L Z G  .H Z Z R A H I +.! R ( ( H g 9 7 2 ",
"r e r r x w L e.q.-.x v v ; ( S v v v D S g D b v p v v i 1 a # ",
"B 6 B j j 1 I 5.7.:.U H K / @.Z Z K Z K H 8  .K Z Z Z 2 3 I ! H ",
"B V X.o.A R ) R Y A 9 H Z D R A D K ) E ] ~ E E T 6 j g j j k j ",
"r t 4 ' x x i i v h 1 h w % @ $ u - A v x p i v x * a w & # # q ",
"H P @.! Z Z J G H Z 9 H 2 6 9 Z 8 Z K Z 1 9 Z 3 2 5 U G N 9 G N ",
"m n m m m k 7 n m n n k n j ! n a s f h f j z t f x x s f G _ v ",
"a & a a f = 1 k r = = a d * l k d d d g d 3 B k r d , d = 5 A ; ",
"H H L P l l ( E D H / ( Z K ;./ K / @.O.X.} B N > 7 N N 7 P P B ",
"_ F 2 m s x c c b v A p p i i p i 1 8.w.0.=.s s t + e # e q X q ",
"Z Z Z ! H N G j 2 3 K R A Z Z H H J 1.=.4.#.R A , 5 P H l N 6 4 ",
"Y Y Y Q W Y K E T ~ ~ H E R ;.] R R E A D H o.D j B Y Y j { ] T ",
"s x x c x i * D i v p i S h K S i u i D p g D p f t r s r + m u ",
"U L } O.( / X.+.K ( +.) R H O.+.( R ( K J ( ,.( H P U B 6  .+.Z ",
"k f N $.E E F E ` F / ] D F F F ` ( ) F F F F F F G Y s s m m x ",
", a N H i Z i i h u J ~ h g h h p 8 K A A h D A z L Y f d a a z ",
"U +.X.o.U H } ! A R +.( R H :.5.5.1.2.-.o.O.#.~ ) &.( Y P @.9 N ",
"x a t a s a 6 T S _ b b S h #.t.r.9.' ' %.H V x c s x c e X.r # ",
"Q B z j B 4 0 ( Y R R Y A 3 ..5.6.>.} U W I X.P H H H Y Z :.W B ",
"o.~ X.1.W Y ~ W ~ H @.W Y Y Y Y Y P +.Q T Q Q W H X.%.~ %.] ~ ) ",
"x S 2 T n r e r s & ( F f s r a s l W x f s s s d P E v h f v b ",
"X.X.O.#.U P } I K K 3.o.! ! @.X.!  .,.! ! U @.X.X.5.&.o.! @.+.X.",
"T V Q Q ' B :.*.T ` ` E Y Y ,.` m D F T ' o.&.T k m k m h G <.E ",
"m m k m f s P ~ h z v D D 2 X.b g g f h F H W k j d j , a 9 E ; "
};
