/* XPM */
static char *m4_resized[] = {
/* columns rows colors chars-per-pixel */
"32 32 89 1 ",
"  c #99684E",
". c #9E6D51",
"X c #A16F52",
"o c #A57656",
"O c #AC7955",
"+ c #AB775A",
"@ c #A77B5D",
"# c #AC7B5D",
"$ c #B27C5C",
"% c #AB7D61",
"& c #B47D60",
"* c #B87E60",
"= c #B4815D",
"- c #B8815F",
"; c #AD8465",
": c #AB8867",
"> c #A5856C",
", c #AD8569",
"< c #AD8B6D",
"1 c #B38363",
"2 c #BA8564",
"3 c #B38866",
"4 c #BC8B66",
"5 c #B38669",
"6 c #BA8769",
"7 c #B48B6C",
"8 c #BB8B6B",
"9 c #BF9167",
"0 c #B7916E",
"q c #BC926E",
"w c #AD8E72",
"e c #B38D71",
"r c #BB8E71",
"t c #AE9176",
"y c #B49274",
"u c #BC9374",
"i c #BC9877",
"p c #B4957A",
"a c #BB9679",
"s c #B59A7D",
"d c #BB9A7C",
"f c #C28665",
"g c #C58A67",
"h c #C28C6B",
"j c #C98F6E",
"k c #C1926D",
"l c #C8916F",
"z c #C08F71",
"x c #C39373",
"c c #C99572",
"v c #C39A74",
"b c #CB9A74",
"n c #C3977B",
"m c #C8967B",
"M c #C39C7C",
"N c #CA9C7D",
"B c #D19D7B",
"V c #C4A17E",
"C c #CBA27E",
"Z c #D1A47C",
"A c #AF9B81",
"S c #B49C82",
"D c #BC9D82",
"F c #B4A086",
"G c #BCA285",
"H c #BDA58A",
"J c #BFA88B",
"K c #BEA990",
"L c #C29E81",
"P c #C99D82",
"I c #C4A384",
"U c #CAA483",
"Y c #CBA886",
"T c #C4A68A",
"R c #CAA68A",
"E c #C5A98C",
"W c #CBAB8D",
"Q c #D2A685",
"! c #D2AC8B",
"~ c #D2B08F",
"^ c #C5AD91",
"/ c #CBAD91",
"( c #D1AF92",
") c #CCB194",
"_ c #C6B39A",
"` c #CCB499",
"' c #D2B294",
"] c #D4B699",
"[ c #D3B89E",
/* pixels */
"YNmMHmhhh88kxGn2111&&1<p1;@XX .X",
"`^//^TLLTTMTGHDaaadey7wtttt<<>>>",
"RQYUUUUVKUq88211&ed$&1$##$1t::@@",
"!!'WWW/E_/IuairurpDrry7377ysy<tt",
"TUYIJ)YGMdur7DEDDay777pJpst<<<<<",
"xxUI`~YNnxh86GEv8u8588yT0q;=1137",
"[/`)`]^E_EJDGDddSHGdpepdisssssst",
"!CUCCUUM`Cq66224kpk$$$##;3sM000<",
"'W!~E)W^_)ETTJGDDGDDayap0tFsssss",
"mMUVG/MvvLCII^/VMMieeudGq0<w0::<",
"NmMCIYNNvMVYYEEIVVi7iiiJdiii0t0:",
"(WRUTE//^/TIIDvxiyGr7uepdddFsssw",
"BccccxZU^)Cbxkk4f8M2$=218uiGi0i<",
"//R/`/WYE^ETTETIdDEDGdDdadpSsddF",
"PPBc/'NCbkkkCVilxk84qvIn2-$O==0q",
"PRPP/]!YUIVUTGGIIMxIGVGd7q0yyisG",
"URPmmxLMGPMvaDMMiGEq636636eEu770",
"jgfgg2hkSz688vMaipT4h864637G7777",
"R(WW`W/TT^TTE^DDDdDMddDGypppSppp",
"QQBNWPcclmNNIIPz65626qeD%&&+1@o;",
"!((R//YTEYETPHTPDdDDDGSGDppppptw",
"'/WPYIxuTWInLzrr8aEMeu<7,%%p657,",
"(RPQUMmxTWIMLLnarSTLGiipapyD7eee",
"RRTP`)LDIDaarpDuraLLddGHpapee,wy",
"jzhfRZ8x82*&$ra26ruiu8yD8ae56%o%",
"/PRP`TEEEIMTLHTGTDJTHDDHDSSSGpSt",
"RPNRPmn8IUVYUUYYIdIvvdMaa7%SV35$",
"(R/(TPRnEIIEIITTIGJGddHDdD<SGdpp",
"WPPPDRinuxxx6uTvMxiur6<Iu7,377,,",
"PmmmDPqNxxrh6iUVdxrr87rHiu,<771+",
"](!YWWWW^YMVMVViidELDipdVdtsGpt<",
"!QBcbCUY^Cbvq9g-=4Tv9=$====w1Ooo"
};
