/* XPM */
static char *m4_resized[] = {
/* columns rows colors chars-per-pixel */
"64 64 133 2 ",
"   c #99674B",
".  c #9A694E",
"X  c #9E6E51",
"o  c #9C7054",
"O  c #9E7358",
"+  c #A06C4F",
"@  c #A37356",
"#  c #AA7555",
"$  c #A47857",
"%  c #AD7957",
"&  c #A47559",
"*  c #AC7759",
"=  c #A57B5C",
"-  c #AC7B5D",
";  c #B27E5D",
":  c #B97E5D",
">  c #A47D62",
",  c #AC7E61",
"<  c #B27E61",
"1  c #AD815E",
"2  c #B4815E",
"3  c #BB825F",
"4  c #A38264",
"5  c #AD8364",
"6  c #AE8967",
"7  c #A6836A",
"8  c #AB856A",
"9  c #A68B6E",
"0  c #AD8B6D",
"q  c #B48364",
"w  c #BA8564",
"e  c #B58966",
"r  c #BC8966",
"t  c #B3866A",
"y  c #B98769",
"u  c #B48B6B",
"i  c #BC8C6B",
"p  c #B6916E",
"a  c #BC926E",
"s  c #A48D73",
"d  c #AC8E73",
"f  c #B38E72",
"g  c #BB8E71",
"h  c #A79074",
"j  c #AC9175",
"k  c #A5927A",
"l  c #AD947B",
"z  c #AD997E",
"x  c #B59273",
"c  c #BC9373",
"v  c #BE9975",
"b  c #B4957A",
"n  c #BB9579",
"m  c #B4997D",
"M  c #BD9A7C",
"N  c #C28664",
"B  c #C38966",
"V  c #C88B67",
"C  c #C28C6C",
"Z  c #C98E6C",
"A  c #C2936E",
"S  c #C8916E",
"D  c #C28F71",
"F  c #C39473",
"G  c #CA9573",
"H  c #C39A75",
"J  c #CA9B75",
"K  c #C39579",
"L  c #C99679",
"P  c #C49C7B",
"I  c #CB9C7B",
"U  c #D09F76",
"Y  c #D09E7C",
"T  c #C5A07E",
"R  c #CBA27D",
"E  c #D1A27D",
"W  c #A79980",
"Q  c #AE9C83",
"!  c #B49D83",
"~  c #BB9D82",
"^  c #AEA189",
"/  c #B5A186",
"(  c #BCA285",
")  c #B5A38A",
"_  c #BCA58B",
"`  c #B7A88F",
"'  c #BCA88E",
"]  c #BAA690",
"[  c #B6AA92",
"{  c #BCAB93",
"}  c #BEB097",
"|  c #BFB199",
" . c #C39D81",
".. c #CC9E81",
"X. c #C4A283",
"o. c #CBA483",
"O. c #CDA886",
"+. c #C2A58A",
"@. c #CBA589",
"#. c #C4A98D",
"$. c #CCAB8C",
"%. c #D2A583",
"&. c #D2A986",
"*. c #D0A78B",
"=. c #D3AC8B",
"-. c #D6B28E",
";. c #D9B38F",
":. c #C3AD93",
">. c #CAAD92",
",. c #C1AF98",
"<. c #D2AE92",
"1. c #C5B096",
"2. c #CBB195",
"3. c #C4B39B",
"4. c #CBB49B",
"5. c #C7B89F",
"6. c #CCB89F",
"7. c #D3B294",
"8. c #D1B59B",
"9. c #D4BA9E",
"0. c #E0BC9D",
"q. c #C4B7A0",
"w. c #CDB7A1",
"e. c #C6B9A2",
"r. c #CBB9A2",
"t. c #CEBFA9",
"y. c #D0B7A1",
"u. c #D2BBA3",
"i. c #D8BDA1",
"p. c #D2BFA8",
"a. c #D3C0A7",
"s. c #D2C2AB",
"d. c #D3C6B0",
/* pixels */
"X...K K K H K ~ n [ ..C C S D B i C i i y i a v F v j {  .y y y w q q w q q 5 , , q 5 5 t 8 z i 1 = 1 1 = = o $ @ o . . . X O O ",
"=.$.X.I I L P @.~ :.L Z C C C C F C B C C w i A F T c )  .w y w 2 2 w w , < < < < - % q t 8 z u e e 6 1 1 - o O .     . . X X X ",
"8.4.>.>.>.=.$.$._ 3.@.P n K K  . .K X.K K K o.X.+.+.( 3.>.g K D c c u x g g g c c g f g x h ) b j m x x j f 4 0 8 4 5 > 8 > , > ",
"r.4.3.3.3.3.1.3.3.3.,.:.#.' #._ | 3.3.:._ ' { >._ ' ( / ~ ' _ ~ _ ~ ! { | ~ l ! m b d d ! d s d h l j h l d z Q ! l z j s W k k ",
"O.*.%.O.O.O.R I O.R o.R X.I o.H m 5.R J i c u C r i i 2 ; q ; ; q , * b #.w * * ; : ; ; - ; 2 % ; % ; ; 2 5 z 6 4 , 5 = O & O O ",
"Y o.%.*.%.%.%.o.o.O.O.R X.o.o.o.( 3.$.H G a i t i a a y w 2 w w q w < l X.y q < ; w w q 2 - q ; 2 2 - q q 5 m p u 8 6 5 , 5 , > ",
"Y %.%.%.=.=.O.R R o.R O.o.o.o.o.' 5.O.T H a w q 2 t r w 3 w w < w ; : b  .B w w < w w ; q ; ; ; 2 2 ; - t 5 z i e 6 5 q , f q = ",
"<.<.<.>.8.9.2.2.2.#.2.4.3.3.3.5.3.5.6.6.1.#.#. ._ X. .M M ~ ~ x +.f ~ [ [ +. .~ ~ n b m ~ c c x c u c x n b / ! m l s Q ^ Q ! ! ",
"4.>.>.$.+.>.2.( { a.3.6.>._ +.+.X.! _ +.~ n b b b m ! } 1.#.( ) _ _ ~ n b b x b b f m f j ) 3.' / z / / z / z h m j 0 0 d 0 h h ",
"K L Y L F P R J s 4.O.O.O.R H F F g i i i B N w ; < 5 ) @.P v n g c c g g q < ; ; ; q q ; j :.H p p p p 6 6 - - 6 2 1 q 5 q e 6 ",
"g F t I O.o.O.T ' 9.-.O.O.O.P P R P F A r y w N w < u { @.T v c c u u n c y t w y y i i e j #.H p p p a e 1 % 2 5 q q 6 e e u p ",
"L Y C v O.X.O.T 3.9.-.$.O.$.L P F F F i C C C q i D p 1.2.X.v H c i t g A t q i i i c q q m 3.T a p H a - 2 1 1 ; 2 2 e e e u p ",
"7.7.<.>.4.2.6.6.5.a.a.6.3.3.3.1.>.:.3.3.,.>.,.:.1.,.,.{ :.{ { :.' ' _ :.' _ ' _ / ! :.Q ! ) [ _ ( / _ ( m m _ ( / ( m / / ) z z ",
"s.s.4.4.6.2.>.2.' $.2.$.#.$.T +.5.6.o.+.~ ~ x M n c g t t y a c v x ^ } M c c y 8 5 5 5 5 t u q 0 p M 9 z ` ( M M m m m m h 0 0 ",
"-.&.%.F o.O.R R T R O.O.O.R R x 5.9.R P F F u w t C y i r w i i G A 0 _ A i e q 2 ; ; ; ; 2 q 2 5 1 v a 9 ) J v p p a p p 6 6 u ",
"=.J o.O.o.R O.R O.R R O.O.T T T :.a.R P F c i i i i i i r r A a a F u ! J y ; 2 < q q q q 5 5 5 e 1 2 e 9 ' v v p p x p x p p 6 ",
"0.o.o.&.o.=.%.=.o.O.O.&.&.o.O.X.3.r.-.R o.T P H M R v v c c a H c c m ' i g t t u q 2 y e q i 5 e i q 6 ^ ` T v v v v v p v p p ",
"a.6.4.4.2.4.2.4.1.:.5.6.6.3.3.e.3.e.5.3.5.3.3.3.| 5.| 3.3.3.{ [ ' ' 1.[ { { 3.3.{ ' ' ) _ _ ' ) / ! Q Q ^ ^ ) m ` z ) z ^ z ^ z ",
"I P  ...o.o.T o.H Q 6.=.R P v M M M X.X.T T X.X.T T _ } 1.X.R T P v M v v x f u u g p n M n ) X.c u u 6 6 0 h j v 0 9 6 6 p 0 h ",
"g J G D J R P o.J z <.%.v c J F F J c I T R T O.T T O.' 4.R T M T T P P v c y 5 u i a a a p / @.A a p p p p 6 6 6 6 6 6 1 6 e 6 ",
"L L D D I P P O.R Q &.I L c P J G A a R J R T T X.T O.#.3.R P H H T T v c i u t i u a a a a ! #.H c a p e p p p 6 6 5 6 6 1 1 6 ",
"L ..I J L L J R I ! 4.O.o.P R P P v T T R X.#.O.o.2.2.' 3.+.O.o.T T T T v g v M M M P M M n ` #.M ( M M ( m m T m M m M v p 5 5 ",
"4.y.w.4.4.r.8.>.3.:.r.3.3.r.5.1.3.3.5.{ 1.' #.:._ ' +.( +.( +.( _ M m ( | ' b b m m / ) ! ! ! ( ' _ ( ( #.( z { / ` [ [ ` ) / Q ",
"=.%...o.I P L J I I P R R $.-.$.m 3.;.R R R H H H A F A A r w r r 2 r 2 ! I B w ; % ; q : q t u a a p v H v z ( v p u 0 u 4 8 8 ",
"&.Y Z L G D D L J L L H R &.O.O.X.3.7.O.R R T H A J c F A C i C r i C t ~ J y w 2 2 2 q w w y y i c c c c H ! ( H p p p v p 6 u ",
"%.G G L L S L L G G G A R R R R M r.7.O.O.R R a H A A H G i C r w B C q +.L w ; 1 2 2 2 3 w < ; w i a y c c Q :.H p p v x x x t ",
"*...&.%...@.*.<.$.$.>.X.-.4.2.#.` a.6.4.1.2.2.$.+.+.#.@.X.X.+.X.P  .M ~ 3.#.~ ~ ' ( m M n n P m M _ _ ( ' ( ` [ ' ( ( X._ ~ ) _ ",
"y.,.p.y.4.1.,.4.t.s.4.$.$.#.O.O.#.( +.#.#.o.( ( ' :.:.' [ >.#.o.' #.~ ~ ( +._ ( ' T #.T ( [ { M M x x f 0 x f 6 x x l m ( ~ ! ) ",
"@.L ......L L L v p.7.=.R R R R J A a B r B V A A R R j ( S A C r r r r A S A 3 r H a v T (  .N w w w : : ; 3 2 q w ; 1 e i a p ",
"........L L L ..K u.;.&.R R R E R J J H a H A A J R R m M S T J H H J A r r a 3 a H H v P M ~ i w w w q q 2 ; - w q - 5 t u x H ",
"K ..D D Z L G G F u.=.&.E E R E J J S J A A A T J T J z ( V H R H A H A A r A H R v v o.P (  .N w w w w ; 3 ; 2 2 q e q i p v T ",
"*.@.>.*.*...*.@.+.d.8.7.9.2.$.$.$.#.O.#.>.#.2.2.1.1.1.` } ' _ >.' +.+.X.X.( :.:.{ ' / :./ ` #.~ b ! M M ! ( / _ ~ ! ) ) ( _ ' ` ",
"4.4.y.w.1.4.>. .+.o.X.X.#.#.#.T ) e.w. .X.+.+. .b _ _ ~ M ( ( m ( ( / } 3.( M x f i e q u t i u u 8 i u f x [ +.n p p u u p p u ",
"Z V Z Z N N N N N 3 w 3 r a H J 4 ] Z B C C C r w a A J H H F P a p e / >.J r 2 r w w w w w r w w w w q w q ) O.a q q e 6 q e u ",
"L Z Z D Z B D Z Z C B y r A F A 0 _ N C w C D C A y a R T H c H H v H m $.G i r w w w w q w r q w q q ; w t ] ..a 6 q e e e u u ",
"L Z Z V N N N V V V B : C A J y s 1.D C N w y w w y P M P v i g p v a l 2.I r C r B r y C y r w r w t q y u !  .a u i u i e a r ",
"....*...@.#.>.4.>.>.4.>.1.4.>.' [ 3.3.3.:.{ :.:.` 3.:.3.3.{ :.:.] :._ ` 3.:._ #.#.+._ #.~ ' ,.] ! _ ] { { ! ] ] _ { ` ! / ) / / ",
"8.8.y.y.8.=...7.3.u.>.@.@.O.@.o... .X.@.o.+.$.#.#.#.+.+.X.g c n n c u g u c f g i c c c c f e.g , t , f f , f , d b t d d d 0 7 ",
"Y %.%.Y E I L =.@.7...I J J L G H L J I R I o.R X.o.R ( X.G D D D w q g a i C i q e c a F 6 { g < < , < < < < < q w 5 , = - , , ",
"&.*.%.%.&.I K *.@.7...I J L G F S H L I P P P J T R R ( @.L D D g t i i i y i t a c a c y 5 :.g w , < < < , > , 8 , - * & = 8 = ",
"Y %.*.....Y L Y P 4.%.L I J L L F P X.X.o.o.@.X. . . .' >.I K K  .n g t q q 0 f n K ~ ( b ! ,.M f ! g f t < 8 d f f b f 8 t d > ",
"<.8.y.y.8.i.u.>.1.e.w.3.q.3.q.w.5.r.3.1.:.1.:.:.:.:.:.] +.' :.,.:.+.+._ { 3.3.,.[ ) 3.:.! Q { { ,.} ] ! ! { { / ! _ ! ] ) ! Q Q ",
"i.8.<.>.4.4.<. .@.$.$.X.K K K u ! s.o.o.o...K n  .K  .g g y y D D < y l 4.o.P n 8 6 c x 8 = b 8 > , > & & , Q n < < < t t t < , ",
"<.*...*.....L ..o.%.X.A C D C C u >.O.O.o. .v v K  .D D D g g D D D y d #.H T v n x v x 0 6 u u t < , , < * b n t t t < t f t , ",
"8.*.@...L L I O.o.T J a G F D G c 1.E I P P c y K D D g D y C y y D < ! *.K X.M M c v c p x a a g g g t t q ( g t < w q q i u , ",
"<.*.>...K ..O.X.o.o.T T  .F L D c 4.#.#.+.X.#.+.~ +.+. . .~  . .~ ~ f ] q...P X.o.M M M v v n ~ ~ ~ M ! ( ) [ ~ t t f f f m b x ",
"y.w.w.y.4.t.4.4.5.a.r.2.:.4.:.,.q.3.q.,.,.:.#._ +.@.! ,.+.~ ~ ~ ~  .~ ~ ~ { #._ ' / ' ( / } | ` ~ ! ! m b ! b ! ! ! b z ! ) ! l ",
"L L K n K D D C +.s.&.J F u i K D i i y < < ; * < < @ ~ K < y r < < < C K  .K n c a p H p / } c i u v n f t < < < , q @ @ t u , ",
"D G Z y C C Z C n i.E E a a A A i C a C w w y < y N , ~  .i g y t i c P F v v c i a c a r d :.g g f P n c u 8 t 6 6 - o @ * , , ",
"L G C D C D D N n i.U J a S A A A C i w < w N < y N & { K q w < < y D i g a c v a i y y 2 l >.g u t v c g f u q e u 6 @ % , * @ ",
"........L K K D ,.p.@.X.+.:.$.o.T  .X.v g K n x n n ! ,.3.' _ #.+.:.+.m ! :.1.} { { ' _ ) ` q.+.! ! _ ~ ! ~ ! ! ! ) ! m ! ! f j ",
"w.y.1.4.>.4.1.4.y.w.:.,.3.#.:.| q.r.2.+.>.#.>.4.>.,.+. .+.+.+._ +.+.( ! 3.' ( X.( M M ( ~ ! ( ~ ~ ~ Q Q ) Q Q ] ' ( b b n ! ! ! ",
"*...I I L o.o..... .D ..F C D y f >.R H J X.R X...P T O.o.o.o.X. .X.P b 1.H H H H H P v c n P c K M t < t & s ,.T v p e y q , ; ",
"&.I I %...Y ..*.......D F I L i g 4.R J X.T P O.X.P R $.o.#.#.o.o.o.T j { T H T H P v P P P v n n c c t < , k ,.R p e u t q q , ",
"=.%.I L K o.@.o.....K y ..L D < ~ 4.A H T P X.&.o.P T R o.O.o.o.X.X.P b { R T T x n m M X.~ n v x g K g t , s ,.O.x v a u i q e ",
"9.4.>.:.4.t.p.4.4.,. .>.4.1.>. .3.r.( 3.>.+.:.:.+.' +.#.{ #._ ' #._ ' ) [ ( ' { / ( / ' _ { | { _ { ' ~ ! ! ! ! _ ' ' _ / ` ) / ",
">.@.*.@.....*...f ,.4. . .K #.K i v F g K i n K i i u ' O.R H T T F F c c c u K g i y t q 7 ,.X.c u x u 8 t u 5 6 p x 0 7 b 0 7 ",
"@... .D  .D L ..< ] ..D C y F c w C g D C C C F a r 2 v $.H H R I P F F L c D F F i i y i q [ o.a a a i q , q u u 6 6 q * * ; * ",
"......L L L ....t ] Y G G y J R A A S A C y C D w w 3 p 2.R H T v a F c g i i i y w q t y t _ P a a i i 5 < u y u u q q q < * * ",
".. .D  .L L Y L f e...K i R o.P a H H v K D i i y y 2 m O.H H H c F F i g g i c g i t g y d { P p x c u 8 > 8 6 u i p 6 q < * & ",
"y.y.y.y.y.8.y.1.1.r.5.4.2.3.6.#.} 5.:.2.' T #.$.#.:.:.3.2.T 1.#.' 1.( { 3._ #.' #.) _ ( / _ } ' ' [ ' / ' ^ / / / ` ' / ! z j l ",
"<.<.<.<.&.%.*...L &.&.O.O.o.=.O.$.5.H J H a R H C i F a A a p a r r a p 3.R P F H a y y e a e c H H c u p e 9 ` m x v p f 8 5 f ",
";.%.%...Y U G A J R R R o.O.o.O.#.3.U U E H H H A a a A r r r r 3 2 3 e 1.o.J v a i w w 2 2 3 r e 3 r r q e - Q x % 1 $ $ # @ # ",
";.;.%.Y J U S S G P R R R X.O.O.' 3.R R R U A H J A A r a A r 2 2 2 3 e } R H v A y q ; % # % % % 1 2 e q 2 $ Q 6 # $ % % @ @ - "
};
