/* XPM */
static char *test_resized[] = {
/* columns rows colors chars-per-pixel */
"64 64 230 2 ",
"   c #EC0203",
".  c #EB050A",
"X  c #EA0B0A",
"o  c #EB0807",
"O  c #E8130E",
"+  c #E7100E",
"@  c #EA0717",
"#  c #E71912",
"$  c #E62315",
"%  c #E72917",
"&  c #E6381A",
"*  c #E9092C",
"=  c #E90726",
"-  c #E8093A",
";  c #E7173D",
":  c #E53627",
">  c #E5551E",
",  c #E7471A",
"<  c #E6661E",
"1  c #E44824",
"2  c #E45721",
"3  c #E64835",
"4  c #E46922",
"5  c #E47724",
"6  c #E70B48",
"7  c #E70C59",
"8  c #E7164B",
"9  c #E60D69",
"0  c #E60E77",
"q  c #E51379",
"w  c #E51767",
"e  c #E83371",
"r  c #7EC429",
"t  c #79BE5A",
"y  c #78BD67",
"u  c #75BB78",
"i  c #6FB77F",
"p  c #7EC249",
"a  c #7DC157",
"s  c #7DC062",
"d  c #E58625",
"f  c #E69B26",
"g  c #E69225",
"h  c #E6A426",
"j  c #E6AA28",
"k  c #E7B727",
"l  c #E5BF34",
"z  c #94D10E",
"x  c #9BD40C",
"c  c #8BCD14",
"v  c #85CB1C",
"b  c #89CC1A",
"n  c #86CB15",
"m  c #92CF17",
"M  c #93D012",
"N  c #98D117",
"B  c #8ECF0E",
"V  c #A3D60B",
"C  c #ABD90B",
"Z  c #A7D80B",
"A  c #B3DB0A",
"S  c #BCDE0A",
"D  c #B8DD10",
"F  c #84C924",
"G  c #89CA26",
"H  c #85C929",
"J  c #89CA2B",
"K  c #83C72A",
"L  c #83C63B",
"P  c #88C834",
"I  c #95CF31",
"U  c #A2D738",
"Y  c #C4E10A",
"T  c #CBE30A",
"R  c #D3E50A",
"E  c #DAE70B",
"W  c #DDE80B",
"Q  c #DBE612",
"!  c #E3E90D",
"~  c #E9EB0F",
"^  c #ECEB14",
"/  c #EFEB1A",
"(  c #E5E913",
")  c #F0EB1B",
"_  c #F1EC16",
"`  c #E9C326",
"'  c #E9CB27",
"]  c #E8C729",
"[  c #EAD326",
"{  c #EADB25",
"}  c #EBDD2B",
"|  c #E9D32A",
" . c #E8D532",
".. c #EDE425",
"X. c #EEE924",
"o. c #EBE62C",
"O. c #EDE829",
"+. c #E4E729",
"@. c #EBE536",
"#. c #F0E922",
"$. c #DEE520",
"%. c #83C446",
"&. c #8CC84B",
"*. c #A3D747",
"=. c #ECD845",
"-. c #EFE848",
";. c #EEE650",
":. c #8DAB42",
">. c #1F39A7",
",. c #1F3BA8",
"<. c #233AA7",
"1. c #2B3AA7",
"2. c #243CA9",
"3. c #2A3DA9",
"4. c #2537A6",
"5. c #3339A7",
"6. c #333BA8",
"7. c #3B3AA8",
"8. c #3A38A7",
"9. c #4439A9",
"0. c #4B39A8",
"q. c #4737A7",
"w. c #5737A8",
"e. c #6336A8",
"r. c #6C35A8",
"t. c #6536A8",
"y. c #7A32A7",
"u. c #7435A8",
"i. c #7634A7",
"p. c #6A2EA3",
"a. c #2542AD",
"s. c #2C42AD",
"d. c #3143AD",
"f. c #384BAE",
"g. c #2B4CB3",
"h. c #2A46B0",
"j. c #334CB3",
"k. c #3549B0",
"l. c #2D55B9",
"z. c #3352B7",
"x. c #3455BA",
"c. c #345BBD",
"v. c #3A54B6",
"b. c #3A51AF",
"n. c #455CB8",
"m. c #4256AF",
"M. c #4D63BC",
"N. c #325FC2",
"B. c #3464C3",
"V. c #366BC8",
"C. c #3774CD",
"Z. c #387AD2",
"A. c #2F62C2",
"S. c #536FC3",
"D. c #9C2EA6",
"F. c #942EA6",
"G. c #8B31A7",
"H. c #8333A8",
"J. c #9635A8",
"K. c #892EA5",
"L. c #A42EA6",
"P. c #AA2EA6",
"I. c #AE2FA8",
"U. c #B22FA7",
"Y. c #AD32A8",
"T. c #A835A8",
"R. c #B531A9",
"E. c #BC34AB",
"W. c #B733A9",
"Q. c #DE1C9D",
"!. c #E4138C",
"~. c #E41284",
"^. c #E21594",
"/. c #E11799",
"(. c #E0199B",
"). c #DB259A",
"_. c #E62A83",
"`. c #CE2EA9",
"'. c #C32FA8",
"]. c #DA24A2",
"[. c #D42AA6",
"{. c #D52BA6",
"}. c #C333AB",
"|. c #CA32AA",
" X c #C73BAC",
".X c #CF39AB",
"XX c #DE1EA0",
"oX c #B04CB2",
"OX c #9D47AF",
"+X c #C842AE",
"@X c #CC4CB2",
"#X c #73BA89",
"$X c #69B39A",
"%X c #74B998",
"&X c #6CB58A",
"*X c #6BB4A8",
"=X c #63AEB8",
"-X c #69B3B6",
";X c #72B6B4",
":X c #3A81D6",
">X c #3C88DB",
",X c #3F90E0",
"<X c #428CDE",
"1X c #4087DB",
"2X c #64AEC8",
"3X c #69B2C7",
"4X c #64AED4",
"5X c #64AEDD",
"6X c #68B1D9",
"7X c #72B4C7",
"8X c #4494E3",
"9X c #499DE9",
"0X c #479AE7",
"qX c #4BA3ED",
"wX c #45A3ED",
"eX c #4EAAF3",
"rX c #4DA7F0",
"tX c #53ADF4",
"yX c #5BADF5",
"uX c #5BADE8",
"iX c #64AEE4",
"pX c #65AEEC",
"aX c #68AFE9",
"sX c #68B0E6",
"dX c #64ADF3",
"fX c #69AFF1",
"gX c #65B2F1",
"hX c #80BDA5",
"jX c #89C4B6",
"kX c #82BFC5",
/* pixels */
"`.`.`.`.`.`.{.{.{.].].Q.Q.Q./.^.^.!.!.0 0 7 6 6 * = @ @ .                 X O X O % $ % & , > < 4 5 d f h h k ` ` ` [ ' [ { { ..",
"}.|.}.|.`.{.{.{.{.].].].XXQ././.^.!.!.~.0 9 7 6 - = @ . .                 o X O O $ % & , , 2 4 5 d g f h k k ` ` [ [ { ..{ ....",
"|.}.`.|.`.`..X.X[.[.].].].Q.Q././.^.!.~.0 9 w 8 8 * @ .                   o O # # $ : 1 & 2 4 5 5 g f h j k ` ` ' [ {  .} ......",
"}.}.|.}.`.+X@X.X[.[.[.].].XXQ./.^.^.^.!.0 q w 8 8 - @ @                 o X O O # : 3 3 , 2 4 5 d g h j k ` ` ' [ |  .+.} o.....",
"}.}.|.}. X@X+X`.`.[.{.{.].].XXQ.(./.^.^._.q _.e - ; @ @ .               o X O O % 3 3 & 1 4 5 5 g f j k k ` ' ' |  .@.;...@.o...",
"}.'.}. X@X X|.|.|.`.[.[.].].XXQ.(.(.^.!.^._._._.e 8 = @ .               o X O $ : : & , 2 4 5 d f h j k ` ' [ [ } | -.;.-.@...#.",
"}.}.}.|.+X|.|.|.`.[.[.[.].{.].XX(.(./.^.!._.9 e w - = @ .               . X $ % : & & 1 < 4 5 g f h k ` ` [ [ { } @...@.-.#.#.X.",
"}.E.@XoX'.}.'.|.|.|.|.[.[.{.].].(.(.(.(.^.!._.w 8 - = @ @               X @ : : $ & , 2 4 5 g f h k k ' [ [ [ { { ..@.@.X...X.O.",
"E.E.E.}.}.}.}.}.|.|.[.|.[.[.{.].XXXX(.(.^.!.~.9 7 6 * @ .               X O # % % & > > 4 d f h j k ` ' [ [ { o.....O...#.#.O.@.",
"E.E. XE.}.}.}.}.|.|.|.|.[.[.{.[.].XXXX(.(.!.~.0 w 7 - = @               X O O $ & , > < 5 g f j k ` ` [ [ { } ......X.X.O.O.o.o.",
"E.E.E. X}.}.}.}.}.}.|.|.`.`.[.[.].].Q.(.(.^.!.0 9 6 ; * @ .           X O O $ % & 1 > 5 d f h k ` ' [ { } o.....X.O.X.O.o.o.@.o.",
"E.E.E.E.E.E.}.E.}.}.}.|.|.`.`.`.{.].XXQ.(.^.!.~.0 7 6 * @ .         X X X O $ % , , 4 5 g h j k ' ' [ { } ....X.X.X.X.o.o.o.o.X.",
"E.E.E.E.E.E.}. X}.}.}.|..X|.|.`.{.].].XX(.(.!.~.q 9 6 - @ . o       . o O O % & & 2 4 d f j k ' ' [ { } O...X.X.X.O.O.o.o.o.+.O.",
"E.E.E.E.E.E.E.E.}.}.}.}.}.|..X`.`.{.{.].Q.(./.!.~.9 6 - *       o     o O # % & , 4 d g f k ` ' [ } } O.X.X.X.O.O.@.o.o.o.O.X.X.",
"R.R.R.E.E.E.E.E.E.E.E.}.}. X|.|.`.{.{.].XX(./.^.~.0 7 6 = @   X X     X O # % & 2 5 g f j ` ' [ { } O...X.O.O.o.o.o.O.O.X.X.X.) ",
"I.R.R.R.E.E.E.E.E.E.}.E. X}.|.|..X{.{.{.].XX/.^.!.~.9 6 * . X     .   X # $ & , 2 d g h k ' ' { o.....O.O.O.O.o.o.+.X.X.X.X.X./ ",
"R.I.R.R.R.R.E.R.E.E.E.E. XE.}.}.|.|.`.{.].].Q./.^.~.9 6 - @ .       X + # $ & 2 5 g f k ` [ [ } } ....#.O.o.@.O.O.X.X./ X.) / ) ",
"P.I.U.I.U.R.R.E.W.E.E.}.E.}.}. X}.|.|.`.{.{.XX(.^.!.q 7 8 =         X # # % , 4 d f j ` [ [ o.o.#.#.#.o.O.@.O.O.X.X.X.) ) _ _ / ",
"I.I.I.I.U.R.R.R.W.E.E.W.E.E.E. X}.}.|.|.`.[.].XX/./.~.9 ; @         o O # : 2 5 d h ` ' [ o.O...X.X.o.@.O.O.O.X./ ) / / / / _ _ ",
"L.L.P.P.I.I.U.R.R.R.R.W.E.E.E.E.}.}.}.|.`.{.{.].(./.!.0 7 =         o O % & 5 5 f k ' ' { ....X.O.O.o.o.O.X.#.) / / ) / _ ^ ^ ^ ",
"T.L.L.L.I.Y.Y.I.I.U.U.R.R.W.E.E.E. X}.}.|.|.`.].].).!.q 7 * @       o # & 1 d g j  .| } O.X.X.o.o.o.X.X.X./ / / / ^ / / / X.^ ^ ",
"F.D.L.T.T.T.T.Y.P.I.U.U.R.E.R.E.E.E.}.}.|.`.`..X@X]./.!.9 * .       X # & 2 5 j ] ]  .} X.X.O.o.o.O.X.X./ ) ^ _ _ _ ^ ) @.+.~ ( ",
"D.D.J.OXOXoXD.oXP.P.I.I.U.U.R.R.E.E.E.E.E.}.|.@X.X].Q.^.~.6 @       O % 2 4 d l =.-...@.O.o.O.O.X.#.) _ ) _ ^ _ ^ ^ ^ +.+.( ~ ! ",
"J.F.J.OXoXoXoXT.D.L.L.P.P.U.I.R.R.R.E.E.E.+X@X X`.[.Q./.~.7 = .   o O , 4 d j | =.-.-.@.O.o.O.X./ ) / / _ / ^ ^ ( ^ +.+.( ~ ! ! ",
"H.G.J.J.G.OXOXF.J.D.D.L.L.I.I.I.Y.Y.R.R.W.oX+X}.'.`.].XX!.7 =     o # 1 4 h '  ...@.-.O.O.X.) ) _ _ ^ ^ ^ ^ ( ~ ( ( +.( ! ! ! W ",
"y.H.G.G.J.J.G.G.G.F.J.D.D.L.L.L.I.I.I.R.+XoX'.}.}.|.`.].Q.0 -     o $ 2 d ` { o.@.-.o.O.X./ / / ^ ^ ^ ~ ( ~ ~ ! $.+.W W W W W E ",
"H.H.H.y.H.H.H.H.G.G.G.G.G.F.F.D.L.L.I.I.R.R.W.E.E.}.|.{.XXQ.7 @   O # 4 k [ ..O.+.O.) ) ^ ^ _ ^ ^ ( ! ~ ! ! W ! Q Q W E E E E E ",
"u.i.i.i.y.y.y.y.y.y.H.H.H.G.F.J.F.D.D.L.L.P.U.R.E.E.}..X[.Q.7 =   O & h } { O.O.O.) ) _ ^ ^ ^ ! ~ ! ! ! W W W W E R E E E R R E ",
"r.u.r.r.y.y.u.r.u.u.u.u.y.H.H.H.G.G.J.J.L.T.T.I.R.R.R.}.|.].q =   @ 4 ' o...X./ _ ^ ^ ( ~ ( ( ! W W W W E W E R R R R R T R T R ",
"e.e.e.r.t.r.p.t.e.e.r.r.r.u.u.u.u.y.H.G.G.G.F.F.F.L.R.R.}.|.].7   & l o...) / ^ ~ ~ ! ! W E E W E R R R T R T T T T T T T T T S ",
"w.w.t.t.w.e.e.w.w.w.e.w.e.r.e.r.u.u.u.u.i.y.i.H.G.J.D.L.Y.E.}.Q.= 5 X.#./ ^ ~ ! W W E R R T T T T T T T T Y Y T Y S Y Y Y Y Y S ",
"w.w.w.w.w.w.w.0.w.w.w.w.w.w.w.r.e.e.e.w.e.e.r.r.u.i.y.i.i.D.E.).& [ ^ E ! E R Y T T T Y T T Y Y Y Y S S S S Y S S S S S S S S A ",
"w.w.0.q.0.0.q.q.q.q.9.q.0.0.w.0.0.0.0.9.q.0.w.0.0.q.9.7.9.e.w.8.:.A C C A A A C A A S A A A A A A S D A A A A A A S A C S S A Z ",
"9.0.q.9.q.q.9.9.8.7.7.7.9.9.9.9.9.9.8.8.7.7.7.8.5.6.1.3.3.,.2.N.=XL b B B x x V x Z V Z Z C Z Z C C C C A C C A A C A C A C A V ",
"q.9.q.7.7.8.9.8.5.5.7.6.d.7.7.7.7.7.7.7.7.6.5.1.1.4.2.2.2.h.l.8XgXa G F b c B B M x x x x x V V V V V V V C Z Z Z Z C C C Z C V ",
"8.7.8.7.8.8.5.5.5.4.1.6.6.7.5.1.1.d.1.1.1.3.3.2.4.2.2.3.6.N.Z.tX5X*Xp G F F v b b c B B z z x x z x x V x V V V x V V V Z Z V Z ",
"5.5.5.8.7.1.1.1.4.3.3.1.1.3.4.2.<.1.s.1.4.3.3.4.3.3.3.j.N.V.,XyXiX4Xs F K F F F b n n c c N B M M z z z x x N x x x z V x V V Z ",
"5.1.5.5.6.1.1.4.2.4.4.2.<.<.<.2.<.1.<.1.1.3.1.3.3.3.j.z.N.,XeXyXpX4Xu p J H F F F v v b b c c c B M z z z z x M x x x x x x x Z ",
"6.1.1.1.1.4.d.3.4.>.>.>.,.>.2.2.<.2.<.2.3.1.6.d.6.k.j.N.Z.wXtXdXpX2X*Xs P H F F F b J J b b n n c c c c c B M B M z N m M x x x ",
"3.1.1.2.2.s.m.g.>.,.4.>.>.,.,.,.a.<.1.s.1.k.k.k.m.k.N.V.,XeXyXyXaX6X=Xu p K F J F J &.P v v v b b b n c c B c M B m m M N M z B ",
"1.3.1.>.a.m.b.>.,.>.<.2.,.,.,.2.<.a.3.2.d.f.n.M.g.n.V.Z.9XyXyXdXgXiX=X#Xt L J G K &.*.F F F v v v b b b c c c c M m N U x N N x ",
"3.2.1.s.b.d.<.<.,.,.,.,.,.,.2.,.a.<.s.3.f.f.M.S.S.S.Z.8XrXtXdXdXpX6X2X-Xi t P J P P K v F v v F v v v b b n c n m G U *.I I c z ",
"2.2.1.d.b.<.<.<.,.,.,.,.,.2.,.2.2.a.s.a.k.m.f.S.S.C.<X9XtXtXdXdXpX5X6X;X%Xy L P P K F K r F r v r v v v v v b b b G c I U c B n ",
"1.4.b.f.<.>.a.<.,.,.,.,.,.,.,.2.2.a.s.s.h.k.n.S.V.Z.0XqXtXyXdXdXpXiX4X-X*Xu &.&.J G F K F F F F F v v v F v b v c G G I n c c M ",
"a.1.s.a.<.a.>.>.,.2.,.2.a.,.,.,.3.a.h.g.j.j.N.V.C.<X9XtXtXyXdXdXpXiX6X3X*X#Xy %.P J K G F K G K F r v v v v r v v v v n n b c v ",
"<.3.<.1.a.1.<.<.2.2.2.,.,.,.a.a.a.h.g.g.z.N.B.C.>X0XrXtXtXyXdXdXaXiXiX2X-X$Xu a %.J G F K F K F F F F F F v v v v v v b n n b c ",
"s.1.3.3.a.1.1.,.2.2.a.,.a.2.,.h.h.g.g.l.N.N.C.Z.>X9XeXtXyXyXdXdXpXpX6X3X-X*Xu y p P G G G J K G F F F F F F F F v v F b v v b n ",
"1.1.2.1.1.a.1.<.2.a.2.a.a.a.a.h.g.g.g.l.N.B.Z.<X0XqXeXtXyXdXdXdXpXiX6X4X2X*X#Xu t %.P J F K G K H F r F G F v F v F v v F v n v ",
"a.1.1.a.3.3.2.3.3.a.a.a.g.3.h.g.g.l.l.A.A.Z.:X,XwXeXeXeXyXyXdXfXuXgXuX4X3X-X$Xi s p p r I b r G H r F J G r r r b r r c r b b r ",
"1.s.3.3.3.h.3.3.3.a.3.a.a.g.g.g.l.l.l.A.V.Z.>XwXwXwXtXtXyXdXdXfXgXgX6X3X3X-X*X#Xu a p U r r I r H J J H v r b G r b r b b r r M ",
"3.3.3.3.3.3.3.3.h.d.h.3.g.g.g.g.l.l.A.V.Z.:X>XwXeXeXtXtXyXdXdXfXsX6X6X6X3X3X*X$X#Xs p p r I b G H J H r r F v r r r b b r r r B ",
"3.3.3.s.6.d.h.3.h.d.h.h.g.g.l.l.l.A.V.C.:X>X,XwXeXtXtXyXdXdXdXfXgXgXuXuX2X3X-X$X#Xu p p p r r I G J r H J F J H b r G r r M r r ",
"3.3.s.6.d.s.d.d.d.d.h.j.g.g.l.l.A.A.C.Z.>X<X0XrXeXtXyXyXyXgXfXdXgXsXsX6X3X3X-X*X$Xu a a r p r r J H H H J r r v r r I r M M r r ",
"s.s.3.6.6.d.d.d.g.j.j.j.z.l.l.N.A.V.Z.:X,X0XwXeXeXeXtXyXdXgXdXdXsXsX6X6X4X2X-X*X%X#Xu a *.p p N G G G H H J G r c r r b r r r M ",
"3.3.d.d.d.d.d.j.d.j.z.z.z.c.N.B.V.Z.:X>X8XwXqXeXtXtXtXyXdXdXdXfXgXsXgX6X6X3X3X*X*X&Xu y a p p r H G G G r H H H r b c r M r r r ",
"s.d.s.d.d.j.d.k.j.j.j.z.l.c.B.B.C.Z.:X>X0XqXeXeXtXtXyXgXdXdXdXdXgXiXuX5X4X4X3X-X*X$Xu u a p p r G G G r G H H H r I r r r r r M ",
"k.3.6.6.7.v.k.6.v.j.j.N.N.N.n.V.C.:X>X8X9XqXeXeXyXyXyXyXdXdXdXdXiXiXiXsX6X3X3X=X-X%X#Xu y a p p r U r I I b I b r r r r I r r r ",
"3.h.h.k.v.k.n.N.z.v.n.N.N.N.V.C.Z.1X<X0XqXrXeXtXfXdXyXdXdXdXfXfXpXgXiXiX6X4X2X3X;X%X%X#Xy s p p p r b r r r r r b r r p *.r r b ",
"h.h.j.m.M.n.6.M.v.N.v.v.B.V.C.Z.1X1X8X0XqXrXtXgXgXdXyXyXdXdXfXpXgXpXpX6X6X4X3X3XkX;X%X#Xs u t p p r r r r b r r I r U *.U I r b ",
"3.h.k.n.S.S.n.m.N.v.N.N.V.S.Z.Z.1X8X9XqXrXtXgXgXyXtXdXyXdXdXdXdXpXiXiX5X6X6X3X3XkXjXhX%X#Xs y p p p U b r I I r r r U r r b r r ",
"h.h.j.v.k.S.S.N.v.N.N.V.C.C.Z.Z.<X0X9XqXeXyXgXtXtXyXyXdXdXdXdXpXpXpXiXsX6X6X3X7X-X;XjX%X#Xu y a p p U r I r I b r r U r r r r c ",
"g.g.6.N.v.n.N.j.c.N.V.V.C.Z.Z.8X8X9XqXqXgXyXtXtXyXyXyXdXdXdXpXdXpXpXpX5X5X4X2X4X3X;X*X$X&Xu u s p p p r r r r r U I r I r r b r ",
"h.h.g.l.N.k.N.N.N.M.V.C.Z.Z.<X8X0X9XqXeXtXtXtXtXyXyXdXdXdXdXdXdXfXpXiXsX6X6X3X2X3X-X*X*X%Xu u s a p p r r U b r r r r r r r r r ",
"g.g.h.l.g.k.N.N.N.V.C.Z.S.Z.,X8X0XqXrXeXtXeXtXyXtXyXdXdXdXyXpXpXpXiXiXuXiXiX6X2X3X3X*X*X$X#Xu s s a p *.r r I I r I r I b I r b "
};
